<?xml version="1.0" encoding="UTF-8"?>
<svg id="Lag_2" data-name="Lag 2" xmlns="http://www.w3.org/2000/svg" viewBox="0 0 183.93 183.93">
  <defs>
    <style>
      .cls-1 {
        fill: #bfd3d7;
      }

      .cls-2 {
        fill: #fff;
      }
    </style>
  </defs>
  <g id="Lag_1-2" data-name="Lag 1">
    <circle class="cls-1" cx="91.97" cy="91.97" r="91.97"/>
    <g id="uddannelse">
      <g>
        <path d="M147.96,86.76c1.34,19.76,1.73,39.57,1.18,59.36-.23-.39-.63-.67-1.21-.69-.59-.02-1.19-.04-1.78-.05.52-19.1.15-38.21-1.11-57.28.45-.01.91-.02,1.36-.04.78-.04,1.53-.67,1.5-1.5,0-.07-.01-.15-.03-.22.05.13.08.27.09.42Z"/>
        <path d="M147.93,145.43c.58.02.98.3,1.21.69-.01.22-.01.44-.02.66-.05,1.93-3.05,1.93-3,0,0-.47.03-.93.03-1.4.59.01,1.19.03,1.78.05Z"/>
        <path class="cls-2" d="M145.04,88.1c1.26,19.07,1.63,38.18,1.11,57.28-15.67-.49-31.36-.23-47,.79,11.92-6.97,26.4-9.23,39.89-5.91.73.18,1.3-.16,1.6-.66.39-.23.67-.64.67-1.23.02-16.78-.13-33.57-.43-50.35,1.39.08,2.77.1,4.16.08Z"/>
        <path d="M146.4,88.06c-.45.02-.91.03-1.36.04-.02-.45-.05-.89-.08-1.34-.12-1.78,2.42-1.9,2.91-.42.02.07.03.15.03.22.03.83-.72,1.46-1.5,1.5Z"/>
        <path d="M147.87,86.34c-.49-1.48-3.03-1.36-2.91.42.03.45.06.89.08,1.34-1.39.02-2.77,0-4.16-.08,0-.58-.02-1.15-.03-1.73-.01-.42-.02-.85-.02-1.27,1.85.1,3.71.11,5.57.04.76-.04,1.34.58,1.47,1.28Z"/>
        <path d="M140.64,139.6c-.88.52-2.33.11-2.33-1.23v-1.36c.51.11,1.02.23,1.53.35,1.14.28,1.29,1.46.8,2.24Z"/>
        <path d="M140.85,86.29c.01.58.02,1.15.03,1.73-.34-.01-.69-.03-1.03-.05-.84-.06-1.46-.64-1.5-1.5-.03-.77.72-1.55,1.5-1.5.33.02.65.04.98.05,0,.42,0,.85.02,1.27Z"/>
        <path d="M138.28,123.67c-.05-12.4-.19-24.79-.43-37.19h.5c.04.85.66,1.43,1.5,1.49.34.02.69.04,1.03.05.3,16.78.45,33.57.43,50.35,0,.59-.28,1-.67,1.23.49-.78.34-1.96-.8-2.24-.51-.12-1.02-.24-1.53-.35.01-4.45,0-8.89-.03-13.34Z"/>
        <path d="M139.76,71.98c.19-.67-.21-1.67-.98-1.82.82-.11,1.74.37,1.76,1.43.11,4.48.2,8.95.29,13.43-.33-.01-.65-.03-.98-.05-.78-.05-1.53.73-1.5,1.5h-.5c-.08-4.49-.17-8.98-.28-13.48.12.01.23.02.35.04.81.11,1.6-.19,1.84-1.05Z"/>
        <path class="cls-2" d="M138.28,123.67c.03,4.45.04,8.89.03,13.34-15.06-3.25-31.28-.09-43.97,8.67-.55-16.67-.84-33.36-.84-50.04,0-4.64.03-9.27.07-13.92,5.94-3.4,12.38-5.91,19.04-7.46.24,0,.49-.05.7-.16,7.93-1.77,16.17-2.18,24.26-1.11.11,4.5.2,8.99.28,13.49.24,12.4.38,24.79.43,37.19ZM132.63,111.17c1.92.17,1.91-2.83,0-3-11.46-1-23.05,1.34-33.26,6.61-1.72.88-.2,3.47,1.51,2.59,9.77-5.04,20.81-7.16,31.75-6.2ZM132.63,125.07c1.92.17,1.91-2.83,0-3-11.46-1-23.05,1.34-33.26,6.61-1.72.89-.2,3.48,1.51,2.59,9.77-5.04,20.81-7.15,31.75-6.2ZM132.61,89.09c1.93.17,1.92-2.83,0-3-11.46-1-23.04,1.34-33.26,6.61-1.72.88-.2,3.47,1.51,2.59,9.77-5.04,20.82-7.16,31.75-6.2ZM132.61,100.05c1.93.17,1.92-2.83,0-3-11.46-1-23.04,1.34-33.26,6.61-1.72.89-.2,3.48,1.51,2.59,9.77-5.04,20.82-7.15,31.75-6.2Z"/>
        <path d="M138.78,70.16c.77.15,1.17,1.15.98,1.82-.24.86-1.03,1.16-1.84,1.05-.12-.02-.23-.03-.35-.04-.01-.47-.02-.93-.03-1.4-.02-.87.58-1.35,1.24-1.43Z"/>
        <path d="M137.57,72.99c-8.09-1.07-16.33-.66-24.26,1.11.46-.2.8-.64.79-1.29-.01-.64-.02-1.27-.02-1.91,8.07-1.61,16.41-1.88,24.63-.76.02,0,.05.01.07.02-.66.08-1.26.56-1.24,1.43,0,.47.02.93.03,1.4Z"/>
        <path d="M126.35,45.58c1.13-.3,1.86.63,1.86,1.52h0c-.26.64-.87,1.08-1.71.81-1.3-.42-2.61-.84-3.91-1.26,1.25-.38,2.5-.73,3.76-1.07Z"/>
        <path d="M113.85,53.58c.07,5.77.14,11.55.23,17.32-1.01.2-2.01.42-3,.67-.08-5.89-.15-11.79-.23-17.68.92-.38,1.85-.74,2.78-1.08.14.21.22.46.22.77Z"/>
        <path d="M114.1,72.81c.01.65-.33,1.09-.79,1.29-.23.05-.47.1-.7.16-.74,0-1.5-.48-1.51-1.45-.01-.41-.01-.83-.02-1.24.99-.25,1.99-.47,3-.67,0,.64,0,1.27.02,1.91Z"/>
        <path d="M112.61,74.26c.23-.06.47-.11.7-.16-.21.11-.46.16-.7.16Z"/>
        <path d="M110.85,53.58c-.02-1.63,2.11-1.88,2.78-.77-.93.34-1.86.7-2.78,1.08v-.31Z"/>
        <path class="cls-2" d="M110.85,53.89c.08,5.89.15,11.79.23,17.68-6.62,1.61-13.02,4.13-18.99,7.53-5.73-3.3-11.87-5.78-18.22-7.42.07-5.86.16-11.71.23-17.57,6.24,2.13,12.41,4.43,18.45,7.09.05.02.1.04.14.05.01,0,.01.01.02.01.3.2.68.29,1.12.21,2.79-.52,5.37-2.33,7.89-3.55,2.73-1.33,5.5-2.57,8.32-3.71.27-.11.54-.22.81-.32Z"/>
        <path d="M99.37,114.78c10.21-5.27,21.8-7.61,33.26-6.61,1.91.17,1.92,3.17,0,3-10.94-.96-21.98,1.16-31.75,6.2-1.71.88-3.23-1.71-1.51-2.59Z"/>
        <path d="M99.37,128.68c10.21-5.27,21.8-7.61,33.26-6.61,1.91.17,1.92,3.17,0,3-10.94-.95-21.98,1.16-31.75,6.2-1.71.89-3.23-1.7-1.51-2.59Z"/>
        <path d="M99.35,103.66c10.22-5.27,21.8-7.61,33.26-6.61,1.92.17,1.93,3.17,0,3-10.93-.95-21.98,1.16-31.75,6.2-1.71.89-3.23-1.7-1.51-2.59Z"/>
        <path d="M99.35,92.7c10.22-5.27,21.8-7.61,33.26-6.61,1.92.17,1.93,3.17,0,3-10.93-.96-21.98,1.16-31.75,6.2-1.71.88-3.23-1.71-1.51-2.59Z"/>
        <path d="M99.15,146.17c-1.73,1.01-3.4,2.12-5.01,3.32-.07,0-.14-.01-.2-.03.47-.41.7-1.12.47-1.72-.02-.41-.03-.82-.04-1.23.02-.01.05-.01.07-.01,1.57-.12,3.14-.23,4.71-.33Z"/>
        <path d="M94.34,145.68c12.69-8.76,28.91-11.92,43.97-8.67v1.36c0,1.34,1.45,1.75,2.33,1.23-.3.5-.87.84-1.6.66-13.49-3.32-27.97-1.06-39.89,5.91-1.57.1-3.14.21-4.71.33-.02,0-.05,0-.07.01-.01-.28-.02-.55-.03-.83Z"/>
        <path d="M147.93,148.43c-17.84-.61-35.7-.26-53.49,1.07-.11.01-.21.01-.3-.01,1.61-1.2,3.28-2.31,5.01-3.32,15.64-1.02,31.33-1.28,47-.79,0,.47-.02.93-.03,1.4-.05,1.93,2.95,1.93,3,0,0-.22,0-.44.02-.66.55.9.14,2.36-1.21,2.31Z"/>
        <path d="M93.78,147.04c-.09-.05-.17-.1-.26-.15.21-.2.49-.34.85-.38,0,.41.02.82.04,1.23-.11-.27-.31-.51-.63-.7Z"/>
        <path d="M93.79,148.99c.38-.22.64-.63.62-1.22v-.03c.23.6,0,1.31-.47,1.72-.13-.03-.25-.08-.35-.15.08-.09.15-.2.2-.32Z"/>
        <path d="M93.58,80.75c0-.77-.46-1.23-1.03-1.38-.15-.09-.31-.18-.46-.27,5.97-3.4,12.37-5.92,18.99-7.53,0,.41,0,.83.02,1.24.01.97.77,1.45,1.51,1.45-6.66,1.55-13.1,4.06-19.04,7.46,0-.32.01-.65.01-.97Z"/>
        <path d="M93.94,149.46c.06.02.13.03.2.03-.02.03-.05.04-.07.06-.3.23-.6.31-.88.28.29-.03.54-.17.75-.37Z"/>
        <path d="M93.61,34.4c.74.76.38,2.51-1.06,2.66-.06.01-.13.01-.19.02-1.29-.83-.48-3.21,1.21-2.69.01,0,.03.01.04.01Z"/>
        <path d="M93.78,147.04c.32.19.52.43.63.7v.03c.02.59-.24,1-.62,1.22.31-.64.16-1.51-.42-1.94.04-.06.09-.11.15-.16.09.05.17.1.26.15Z"/>
        <path d="M128.21,47.11c0,.59-.32,1.16-1.06,1.36-4.58,1.23-9.09,2.67-13.52,4.34-.67-1.11-2.8-.86-2.78.77v.31c-.27.1-.54.21-.81.32-2.82,1.14-5.59,2.38-8.32,3.71-2.52,1.22-5.1,3.03-7.89,3.55-.44.08-.82-.01-1.12-.21,1.68.55,3.06-1.89,1.35-2.65-.14-.06-.27-.12-.41-.18,1.22-.34,2.32-.97,3.45-1.55,1.38-.71,2.76-1.39,4.15-2.05,2.63-1.25,5.29-2.42,7.99-3.51,4.37-1.78,8.83-3.34,13.35-4.67,1.3.42,2.61.84,3.91,1.26.84.27,1.45-.17,1.71-.8Z"/>
        <path d="M93.04,146.61c.43-.32.86-.63,1.3-.93.01.28.02.55.03.83-.36.04-.64.18-.85.38-.16-.09-.32-.19-.48-.28Z"/>
        <path d="M93.4,149.15c.14-.03.27-.08.39-.16-.05.12-.12.23-.2.32-.07-.04-.14-.09-.19-.16Z"/>
        <path d="M93.59,149.31c.1.07.22.12.35.15-.21.2-.46.34-.75.37-.12,0-.23-.03-.33-.09.31-.06.55-.22.73-.43Z"/>
        <path d="M93.79,148.99c-.12.08-.25.13-.39.16-.53-.51-.54-1.49-.03-2.1.58.43.73,1.3.42,1.94Z"/>
        <path d="M90.96,132.88c-.42-17.05-.55-34.12-.39-51.18.14.07.28.15.42.24.42.44,1.08.64,1.77.24.27-.16.54-.31.81-.46-.04,4.65-.07,9.28-.07,13.92,0,16.68.29,33.37.84,50.04-.44.3-.87.61-1.3.93-.56-.32-1.13-.63-1.7-.93-.14-4.27-.27-8.54-.38-12.8Z"/>
        <path d="M93.4,149.15c.05.07.12.12.19.16-.18.21-.42.37-.73.43-.33-.12-.6-.41-.76-.77.39.24.87.3,1.3.18Z"/>
        <path d="M93.37,147.05c-.17-.12-.37-.21-.61-.24.09-.07.18-.14.28-.2.16.09.32.19.48.28-.06.05-.11.1-.15.16Z"/>
        <path d="M93.19,149.83c-.19.03-.39.02-.6-.05.1,0,.19,0,.27-.04.1.06.21.09.33.09Z"/>
        <path d="M93.37,147.05c-.51.61-.5,1.59.03,2.1-.43.12-.91.06-1.3-.18-.3-.63-.25-1.48.46-2.01.07-.05.13-.1.2-.15.24.03.44.12.61.24Z"/>
        <path d="M92.71,79.46c1.66.97.15,3.57-1.52,2.59-.07-.04-.13-.08-.2-.11-.2-.21-.35-.47-.41-.75v-.44c0-.31.09-.58.23-.79.11-.14.26-.26.44-.37.13-.08.26-.15.39-.23.3-.08.62-.08.91.01.05.03.11.06.16.09Z"/>
        <path d="M127.3,45.02c.99.33,1.22,1.33.91,2.08,0-.89-.73-1.82-1.86-1.52-1.26.34-2.51.69-3.76,1.07-9.91-3.2-19.85-6.32-29.81-9.37-.16-.05-.3-.11-.42-.2.06-.01.13-.01.19-.02,1.44-.15,1.8-1.9,1.06-2.66,11.27,3.45,22.49,6.98,33.69,10.62Z"/>
        <path class="cls-2" d="M92.78,37.28c9.96,3.05,19.9,6.17,29.81,9.37-4.52,1.33-8.98,2.89-13.35,4.67-2.7,1.09-5.36,2.26-7.99,3.51-1.39.66-2.77,1.34-4.15,2.05-1.13.58-2.23,1.21-3.45,1.55-9.99-4.36-20.32-7.82-30.7-11.15,4.21-2.14,8.53-4.07,12.94-5.75,5.31-2.03,10.8-3.84,16.47-4.45.12.09.26.15.42.2Z"/>
        <path d="M91.34,145.68c.57.3,1.14.61,1.7.93-.1.06-.19.13-.28.2-.08-.01-.17-.02-.26-.02h-1.12c-.02-.37-.03-.74-.04-1.11Z"/>
        <path d="M92.09,79.1c.15.09.31.18.46.27-.29-.09-.61-.09-.91-.01.15-.08.3-.17.45-.26Z"/>
        <path d="M92.69,61.25c-.98-.66-1.11-2.4.34-2.67.21-.04.42-.09.62-.15.14.06.27.12.41.18,1.71.76.33,3.2-1.35,2.65-.01,0-.01-.01-.02-.01Z"/>
        <path d="M91.19,82.05c1.67.98,3.18-1.62,1.52-2.59-.05-.03-.11-.06-.16-.09.57.15,1.04.61,1.03,1.38,0,.32-.01.65-.01.97-.27.15-.54.3-.81.46-.69.4-1.35.2-1.77-.24.07.03.13.07.2.11Z"/>
        <path d="M92.56,146.96c-.71.53-.76,1.38-.46,2.01-.39-.22-.67-.63-.69-1.2-.01-.33-.02-.65-.03-.98h1.12c.09,0,.18.01.26.02-.07.05-.13.1-.2.15Z"/>
        <path d="M92.26,149.63c-1.73-1.02-3.51-1.96-5.32-2.82,1.48,0,2.96-.01,4.44-.02.01.33.02.65.03.98.02.57.3.98.69,1.2.16.36.43.65.76.77-.08.03-.17.04-.27.04-.11-.03-.22-.08-.33-.15Z"/>
        <path d="M90.99,81.94c-.14-.09-.28-.17-.42-.24,0-.17,0-.34.01-.51.06.28.21.54.41.75Z"/>
        <path d="M90.81,79.96c.19-.3.49-.5.83-.6-.13.08-.26.15-.39.23-.18.11-.33.23-.44.37Z"/>
        <path d="M90.81,79.96c-.14.21-.23.48-.23.79v.44c-.11-.41-.06-.86.23-1.23Z"/>
        <path class="cls-2" d="M86.94,146.81c-16.39.08-32.78.1-49.17.06-.5-19.27-.13-38.56,1.12-57.79,1.73.03,3.47-.01,5.19-.12.02,0,.04,0,.06-.01.03,11.73.13,23.46.31,35.2.08,4.96.17,9.93.27,14.9.02,1.06.93,1.54,1.75,1.43.2.04.42.04.64.01,13.55-1.86,27.53.44,39.83,6.32Z"/>
        <path d="M71.14,53.1c.23-1.7,2.99-1.62,2.97.23,0,.26-.01.52-.01.78-.98-.35-1.97-.68-2.96-1.01Z"/>
        <path d="M74.1,54.11c-.07,5.86-.16,11.71-.23,17.57-.99-.26-1.99-.49-2.99-.71.07-5.88.16-11.76.23-17.64,0-.08.01-.16.03-.23.99.33,1.98.66,2.96,1.01Z"/>
        <path d="M73.87,71.68c6.35,1.64,12.49,4.12,18.22,7.42-.15.09-.3.18-.45.26-.34.1-.64.3-.83.6-.29.37-.34.82-.23,1.23-.01.17-.01.34-.01.51-5.88-3.4-12.25-5.91-18.85-7.48l.08-.3c.87.3,2.05-.16,2.06-1.36,0-.29.01-.59.01-.88Z"/>
        <path d="M70.88,70.97c1,.22,2,.45,2.99.71,0,.29-.01.59-.01.88-.01,1.2-1.19,1.66-2.06,1.36-.53-.18-.95-.63-.94-1.36.01-.53.01-1.06.02-1.59Z"/>
        <path d="M93.57,34.39c-1.69-.52-2.5,1.86-1.21,2.69-5.67.61-11.16,2.42-16.47,4.45-4.41,1.68-8.73,3.61-12.94,5.75-1.23-.39-2.47-.79-3.7-1.18-.13-.04-.25-.06-.37-.07,5.24-2.81,10.66-5.28,16.21-7.4,5.65-2.15,11.42-3.95,17.46-4.57.47-.05.82.09,1.06.34-.01,0-.03-.01-.04-.01Z"/>
        <path d="M63.92,49.83c0,.31,0,.61.02.92-1-.33-2.01-.65-3.02-.97,0-1.89,2.96-1.86,3,.05Z"/>
        <path d="M60.92,49.78c1.01.32,2.02.64,3.02.97.08,4.06.17,8.13.25,12.19.04,1.94-2.96,1.93-3,0l-.27-13.11v-.05Z"/>
        <path d="M59.25,46.1c1.23.39,2.47.79,3.7,1.18-1,.51-1.99,1.03-2.98,1.56-1.7.92-3.21-1.67-1.51-2.59.14-.08.28-.15.42-.22.12.01.24.03.37.07Z"/>
        <path d="M62.95,47.28c10.38,3.33,20.71,6.79,30.7,11.15-.2.06-.41.11-.62.15-1.45.27-1.32,2.01-.34,2.67-.04-.01-.09-.03-.14-.05-6.04-2.66-12.21-4.96-18.45-7.09,0-.26.01-.52.01-.78.02-1.85-2.74-1.93-2.97-.23-2.39-.8-4.79-1.58-7.2-2.35-.01-.31-.01-.61-.02-.92-.04-1.91-2.99-1.94-3-.05-.82-.27-1.64-.53-2.46-.79-1.71-.54-1.15-3.09.42-2.96-.14.07-.28.14-.42.22-1.7.92-.19,3.51,1.51,2.59.99-.53,1.98-1.05,2.98-1.56Z"/>
        <path d="M84.53,92.58c1.72.88.2,3.47-1.52,2.59-9.76-5.04-20.81-7.16-31.75-6.2-1.92.17-1.91-2.83,0-3,11.46-1,23.05,1.34,33.27,6.61Z"/>
        <path d="M51.26,96.93c11.46-1,23.05,1.34,33.27,6.61,1.72.89.2,3.48-1.52,2.59-9.76-5.04-20.81-7.16-31.75-6.2-1.92.17-1.91-2.83,0-3Z"/>
        <path d="M51.24,108.05c11.47-1,23.05,1.34,33.27,6.61,1.72.88.2,3.47-1.51,2.59-9.77-5.04-20.82-7.16-31.76-6.2-1.92.17-1.9-2.83,0-3Z"/>
        <path d="M84.51,128.56c1.72.89.2,3.48-1.51,2.59-9.77-5.04-20.82-7.16-31.76-6.2-1.92.17-1.9-2.83,0-3,11.47-1,23.05,1.34,33.27,6.61Z"/>
        <path class="cls-2" d="M51.26,96.93c-1.91.17-1.92,3.17,0,3,10.94-.96,21.99,1.16,31.75,6.2,1.72.89,3.24-1.7,1.52-2.59-10.22-5.27-21.81-7.61-33.27-6.61ZM51.26,85.97c-1.91.17-1.92,3.17,0,3,10.94-.96,21.99,1.16,31.75,6.2,1.72.88,3.24-1.71,1.52-2.59-10.22-5.27-21.81-7.61-33.27-6.61ZM47.69,137.42c-.34-17.02-.53-34.03-.56-51.05,0-4.53,0-9.07.02-13.6,8.21-.99,16.55-.47,24.57,1.45,6.6,1.57,12.97,4.08,18.85,7.48-.16,17.06-.03,34.13.39,51.18.11,4.26.24,8.53.38,12.8-13.31-7.16-28.64-10.02-43.65-8.26ZM51.24,121.95c-1.9.17-1.92,3.17,0,3,10.94-.96,21.99,1.16,31.76,6.2,1.71.89,3.23-1.7,1.51-2.59-10.22-5.27-21.8-7.61-33.27-6.61ZM51.24,108.05c-1.9.17-1.92,3.17,0,3,10.94-.96,21.99,1.16,31.76,6.2,1.71.88,3.23-1.71,1.51-2.59-10.22-5.27-21.8-7.61-33.27-6.61Z"/>
        <path d="M47.72,139.05c.02.87-.58,1.35-1.25,1.43-.56-.08-1.04-.41-1.21-1.04-.18-.71.24-1.74,1.05-1.85.46-.06.92-.12,1.38-.17.01.54.02,1.09.03,1.63Z"/>
        <path d="M86.94,146.81c-12.3-5.88-26.28-8.18-39.83-6.32-.22.03-.44.03-.64-.01.67-.08,1.27-.56,1.25-1.43,0-.54-.02-1.09-.03-1.63,15.01-1.76,30.34,1.1,43.65,8.26.01.37.02.74.04,1.11-1.48.01-2.96.02-4.44.02Z"/>
        <path d="M70.86,72.56c-.01.73.41,1.18.94,1.36l-.08.3c-8.02-1.92-16.36-2.44-24.57-1.45v-1.32c.01-1.56-1.94-1.86-2.71-.91.18-.28.45-.49.8-.54,8.56-1.17,17.26-.82,25.64.97,0,.53,0,1.06-.02,1.59Z"/>
        <path d="M44.44,70.54c.77-.95,2.72-.65,2.71.91v1.32c-.37.03-.74.08-1.11.13-.8.11-1.62-.18-1.85-1.05-.03-.11-.04-.23-.04-.35v-.05c0-.07,0-.14.02-.2,0-.08.03-.16.05-.24.03-.09.06-.17.09-.24.03-.08.08-.16.13-.23Z"/>
        <path d="M45.58,87.46c.04.82-.67,1.41-1.44,1.49,0-1-.01-1.99,0-2.99.81-.02,1.41.75,1.44,1.5Z"/>
        <path d="M46.31,137.59c-.81.11-1.23,1.14-1.05,1.85.17.63.65.96,1.21,1.04-.82.11-1.73-.37-1.75-1.43-.1-4.97-.19-9.94-.27-14.9-.18-11.74-.28-23.47-.31-35.2.77-.08,1.48-.67,1.44-1.49-.03-.75-.63-1.52-1.44-1.5-.02-4.82-.01-9.64.01-14.46,0,.12.01.24.04.35.23.87,1.05,1.16,1.85,1.05.37-.05.74-.1,1.11-.13-.02,4.53-.03,9.07-.02,13.6.03,17.02.22,34.03.56,51.05-.46.05-.92.11-1.38.17Z"/>
        <path d="M44.31,70.77c-.03.07-.06.15-.09.24.01-.09.04-.17.09-.24Z"/>
        <path d="M44.22,71.01c-.02.08-.04.16-.05.24,0-.09.02-.17.05-.24Z"/>
        <path d="M38.97,87.75c.12-1.78-2.43-1.91-2.92-.4.07-.71.76-1.34,1.49-1.31,2.18.09,4.37.06,6.54-.08h.06c-.01,1,0,1.99,0,2.99-.02.01-.04.01-.06.01-1.72.11-3.46.15-5.19.12.02-.44.05-.89.08-1.33Z"/>
        <path d="M38.97,87.75c-.03.44-.06.89-.08,1.33-.45-.01-.9-.02-1.35-.04-.84-.03-1.46-.66-1.5-1.5,0-.06,0-.13,0-.19.49-1.51,3.04-1.38,2.92.4Z"/>
        <path d="M92.5,149.79c-18.82.1-37.63.12-56.45.08-1.32-.01-1.73-1.4-1.26-2.29,0,.27,0,.54.02.81.06,1.93,3.06,1.93,3,0-.01-.51-.03-1.01-.04-1.52,16.39.04,32.78.02,49.17-.06,1.81.86,3.59,1.8,5.32,2.82.11.07.22.12.33.15-.03.01-.06.01-.09.01Z"/>
        <path d="M36.05,146.87h1.72c.01.51.03,1.01.04,1.52.06,1.93-2.94,1.93-3,0-.01-.27-.02-.54-.02-.81.23-.41.65-.71,1.26-.71Z"/>
        <path d="M37.77,146.87h-1.72c-.61,0-1.03.3-1.26.71-.54-19.95-.15-39.92,1.18-59.83.01-.15.04-.28.08-.4,0,.06,0,.13,0,.19.04.84.66,1.47,1.5,1.5.45.02.9.03,1.35.04-1.25,19.23-1.62,38.52-1.12,57.79Z"/>
      </g>
    </g>
  </g>
</svg>