<?xml version="1.0" encoding="UTF-8"?>
<svg id="Lag_2" data-name="Lag 2" xmlns="http://www.w3.org/2000/svg" viewBox="0 0 185.93 185.93">
  <defs>
    <style>
      .cls-1 {
        fill: #bfd3d7;
      }

      .cls-2 {
        fill: #fff;
      }

      .cls-8 {
        stroke-width: 0.5px;
      }

      .cls-8, .cls-4 {
        fill: none;
        stroke: #000;
        stroke-miterlimit: 10;
      }

      .cls-4 {
        stroke-width: 3px;
      }
    </style>
  </defs>
  <g id="Lag_1-2" data-name="Lag 1">
    <circle class="cls-1" cx="92.97" cy="92.97" r="92.97"/>
    <g id="computer">
      <g>
        <path d="M168.03,132.66c.15,1.07.25,2.15.16,3.22-.11,1.17-.41,2.77-1.3,3.63-.53.51-1.26.41-1.93.4-.99,0-1.97,0-2.96-.02-3.65-.02-7.29-.05-10.94-.06-12.07-.07-24.14-.16-36.22-.23-14.52-.08-29.03-.18-43.55-.27-12.16-.07-24.32-.15-36.48-.22-5.12-.04-10.24-.06-15.37-.1-.57,0-1.21-.42-1.33-1.02-.39-1.88-.51-3.77-.33-5.69.06-.51.32-.87.67-1.08-.04.06-.07.12-.11.18-.53.91.14,2.09,1.2,2.09h.93c-.03.9,0,1.81.13,2.7-.3,0-.61.02-.9.05-.08,0-.18,0-.26,0,.45.34.9.68,1.34,1.02-.07-.35-.13-.71-.18-1.06,1.6-.06,3.25.07,4.82.08,4.02.03,8.05.06,12.06.07,12.2.08,24.39.16,36.59.23,14.1.08,28.2.18,42.3.26,11.66.07,23.31.15,34.98.22,4.57.03,9.14.06,13.71.08-.09.24-.21.47-.35.69.4-.23.79-.46,1.19-.68-.28,0-.56,0-.84,0,.47-1.14.44-2.39.3-3.63.39,0,.77-.02,1.15-.03.08,0,.17,0,.26,0,.54,0,1.02-.35,1.25-.82Z"/>
        <path d="M167.98,131.4c.28.41.26.87.06,1.26-.06-.39-.11-.77-.18-1.14-.17-1.02-1.14-1.2-1.87-.8h-1.8c-.3-.43-.59-.88-.89-1.31-5.14-7.63-10.28-15.26-15.42-22.9.13,0,.25,0,.38-.02.05,0,.09,0,.15,0,.02,0,.04,0,.06,0h.14c1.27,0,1.63-1.4,1.09-2.21.05.05.07.09.11.14.76,1.13,1.52,2.26,2.28,3.39,5.3,7.86,10.6,15.73,15.9,23.6Z"/>
        <path d="M167.86,131.52c.06.38.12.76.18,1.14-.22.47-.7.82-1.25.82-.09,0-.18,0-.26,0-.39,0-.77.03-1.15.03-.06-.42-.12-.84-.18-1.26v-.06c.13.19.27.4.4.59.4-.69.79-1.38,1.2-2.08h-.8c.73-.4,1.71-.22,1.87.8Z"/>
        <path d="M166.79,130.71c-.41.69-.8,1.38-1.2,2.08-.13-.19-.27-.4-.4-.59-.09-.69.29-1.23.79-1.49h.8Z"/>
        <path d="M164.19,130.71h1.8c-.51.26-.89.79-.79,1.49-.34-.5-.67-.99-1.01-1.49Z"/>
        <path d="M165.91,137.15c-.4.22-.79.45-1.19.68.14-.22.26-.45.35-.69.28,0,.56,0,.84,0Z"/>
        <path class="cls-2" d="M165.38,133.51c.14,1.24.17,2.49-.3,3.63-4.58-.03-9.15-.06-13.71-.08-11.67-.07-23.32-.15-34.98-.22-14.1-.08-28.2-.18-42.3-.26-12.2-.07-24.39-.15-36.59-.23-4.01-.02-8.04-.05-12.06-.07-1.57,0-3.22-.15-4.82-.08-.12-.9-.16-1.8-.13-2.7h128.19c5.56,0,11.15.16,16.71.03Z"/>
        <path d="M165.19,132.25c.06.42.13.83.18,1.26-5.56.13-11.16-.03-16.71-.03H20.48c0-.34.03-.68.06-1.03.06.11.13.23.19.34.42-.72.83-1.44,1.26-2.16,1.17,0,2.35.08,3.5.08h138.69c.33.5.66.99,1.01,1.49v.06Z"/>
        <path class="cls-2" d="M163.3,129.4c.3.43.59.88.89,1.31H25.5c-1.14,0-2.33-.07-3.5-.08,4.93-8.38,10.39-16.45,16.37-24.14h96.59c4.29,0,8.63.17,12.92.02,5.14,7.63,10.28,15.26,15.42,22.9ZM149.73,119.73l-.48-1.58h-4.32l.62,1.58h4.18ZM148.99,115.47l-3.65-6.1h-7.09l.54,2.11h1.49l.69,1.41h-10.97l.7,2.57h18.29ZM143.99,119.73l-.68-1.58h-4.73l.62,1.58h4.8ZM143.14,117.51l-.89-1.38h-4.6l.61,1.38h4.87ZM137.65,119.73l-.49-1.58h-4.73l.62,1.58h4.61ZM136.97,111.48l-1.16-2.11h-6.97l.81,2.11h7.32ZM129.6,119.51l-.76-2.69h-8.04l.75,2.69h8.05ZM127.02,111.48l-1.16-2.11h-6.98l.82,2.11h7.32ZM127.02,115.02l-1.16-2.12h-6.98l.82,2.12h7.32ZM118.88,119.51l-.9-3.16h-49.65l-.68,3.16h51.24ZM117.07,111.48l-1.16-2.11h-6.98l.82,2.11h7.32ZM117.07,115.02l-1.16-2.12h-6.98l.82,2.12h7.32ZM111.72,129.57l-2.57-8.79h-32.31l-2.64,8.79h37.51ZM106.72,115.02v-2.12h-7v2.12h7ZM106.72,111.48v-2.11h-7v2.11h7ZM96.77,115.02v-2.12h-7v2.12h7ZM96.77,111.48v-2.11h-7v2.11h7ZM86.88,115.02v-2.12h-7.01v2.12h7.01ZM86.88,111.48v-2.11h-7.01v2.11h7.01ZM76.78,111.48l.82-2.11h-6.98l-1.16,2.11h7.32ZM76.78,115.02l.82-2.12h-6.98l-1.16,2.12h7.32ZM66.82,111.48l.82-2.11h-6.98l-1.16,2.11h7.32ZM66.2,115.02l.82-2.12h-6.98l-1.16,2.12h7.32ZM65.01,118.94l.82-2.11h-6.98l-1.16,2.11h7.32ZM56.88,111.48l.82-2.11h-6.98l-1.16,2.11h7.32ZM55.97,115.02l.82-2.12h-6.98l-1.16,2.12h7.32ZM53.82,118.94l.82-2.11h-6.98l-1.16,2.11h7.32ZM46.93,111.48l.82-2.11h-6.98l-1.16,2.11h7.32ZM46.02,115.02l.82-2.12h-6.98l-1.16,2.12h7.32ZM43.87,118.94l.82-2.11h-6.98l-1.16,2.11h7.32Z"/>
        <path d="M149.69,104.27c.54.81.18,2.21-1.09,2.21h-.14c.65-.05,1.25-.49,1.24-1.33,0-.3,0-.59,0-.89Z"/>
        <polygon class="cls-2" points="149.25 118.15 149.73 119.73 145.54 119.73 144.93 118.15 149.25 118.15"/>
        <path d="M149.7,105.16c0,.84-.59,1.28-1.24,1.33-.02,0-.04,0-.06,0h-.15c-.15,0-.3-.03-.43-.07h0c-.13-.2-.27-.41-.41-.61-.97-1.42,1.21-2.76,2.26-1.56l.02.02h0c0,.3,0,.6,0,.9Z"/>
        <path d="M149.69,104.26l-.02-.02c-.21-.31-.57-.53-1.07-.53h-1.68c-.04-4.5-.08-9.02-.13-13.53-.18-17.19-.46-34.4-.83-51.58.32,0,.65,0,.97,0,1.04,0,1.48-.94,1.29-1.73.29.22.48.56.49,1.03.11,4.98.21,9.98.3,14.96.31,17.13.54,34.25.67,51.38Z"/>
        <polygon class="cls-2" points="145.33 109.37 148.99 115.47 130.7 115.47 129.99 112.89 140.97 112.89 140.27 111.48 138.79 111.48 138.24 109.37 145.33 109.37"/>
        <path d="M148.6,103.72c.5,0,.86.21,1.07.53-1.05-1.2-3.23.14-2.26,1.56.14.2.28.41.41.61-.49-.18-.88-.59-.89-1.26,0-.48,0-.96,0-1.44h1.68Z"/>
        <path d="M148.41,106.49c-.06,0-.1,0-.15,0h.15Z"/>
        <path d="M148.26,106.49c-.13,0-.25.02-.38.02-.02-.03-.04-.06-.06-.09.14.05.29.07.43.07Z"/>
        <path d="M148.22,36.89c.18.78-.25,1.73-1.29,1.73-.32,0-.65,0-.97,0,0-.23,0-.45-.02-.68-.03-1.32,1.48-1.66,2.28-1.03Z"/>
        <path d="M147.82,106.41s.04.06.06.09c-4.29.15-8.63-.02-12.92-.02H38.37c.1-.14.21-.27.31-.41-.24.1-.47.19-.7.29l-.24-.58c.16-.21.25-.49.25-.82,0-.42,0-.83,0-1.25,1.68-.06,3.36,0,5.04,0h103.9c0,.48,0,.96,0,1.44,0,.66.4,1.08.89,1.26h0Z"/>
        <path d="M148.22,36.89c-.8-.63-2.31-.29-2.28,1.03,0,.23,0,.45.02.68-7.8-.09-15.59-.15-23.39-.19-28.05-.15-56.09-.04-84.13.32,0-.47.02-.93.03-1.4.02-.99-.82-1.43-1.58-1.32.06-.02.13-.03.19-.03,8.12-.11,16.23-.19,24.35-.26,28.5-.23,57-.18,85.49.12.73,0,1.17.48,1.29,1.04Z"/>
        <path class="cls-2" d="M140.49,96.65c.02-2.94.06-13.74.23-53.42H42.6c0,2.94-.06,13.74-.22,53.42h98.11ZM146.79,90.19c.05,4.51.09,9.03.13,13.53H43.02c-1.68,0-3.36-.06-5.04,0-.11-17.15-.03-34.29.22-51.43.06-4.51.15-9.03.24-13.55,28.04-.36,56.08-.47,84.13-.32,7.8.05,15.59.1,23.39.19.37,17.18.65,34.39.83,51.58Z"/>
        <polygon class="cls-2" points="143.31 118.15 143.99 119.73 139.2 119.73 138.58 118.15 143.31 118.15"/>
        <polygon class="cls-2" points="142.25 116.13 143.14 117.51 138.26 117.51 137.65 116.13 142.25 116.13"/>
        <path class="cls-2" d="M42.6,43.23h98.12c-.17,39.67-.21,50.47-.23,53.42H42.38c.17-39.67.21-50.47.22-53.42Z"/>
        <polygon class="cls-2" points="137.16 118.15 137.65 119.73 133.05 119.73 132.43 118.15 137.16 118.15"/>
        <polygon class="cls-2" points="135.81 109.37 136.97 111.48 129.65 111.48 128.84 109.37 135.81 109.37"/>
        <polygon class="cls-2" points="128.84 116.82 129.6 119.51 121.55 119.51 120.8 116.82 128.84 116.82"/>
        <polygon class="cls-2" points="125.86 109.37 127.02 111.48 119.7 111.48 118.88 109.37 125.86 109.37"/>
        <polygon class="cls-2" points="125.86 112.89 127.02 115.02 119.7 115.02 118.88 112.89 125.86 112.89"/>
        <polygon class="cls-2" points="117.98 116.35 118.88 119.51 67.65 119.51 68.33 116.35 117.98 116.35"/>
        <polygon class="cls-2" points="115.91 109.37 117.07 111.48 109.76 111.48 108.93 109.37 115.91 109.37"/>
        <polygon class="cls-2" points="115.91 112.89 117.07 115.02 109.76 115.02 108.93 112.89 115.91 112.89"/>
        <polygon class="cls-2" points="109.16 120.77 111.72 129.57 74.21 129.57 76.85 120.77 109.16 120.77"/>
        <rect class="cls-2" x="99.71" y="112.89" width="7" height="2.12"/>
        <rect class="cls-2" x="99.71" y="109.37" width="7" height="2.11"/>
        <rect class="cls-2" x="89.77" y="112.89" width="7" height="2.12"/>
        <rect class="cls-2" x="89.77" y="109.37" width="7" height="2.11"/>
        <rect class="cls-2" x="79.86" y="112.89" width="7.01" height="2.12"/>
        <rect class="cls-2" x="79.86" y="109.37" width="7.01" height="2.11"/>
        <polygon class="cls-2" points="77.6 109.37 76.78 111.48 69.46 111.48 70.63 109.37 77.6 109.37"/>
        <polygon class="cls-2" points="77.6 112.89 76.78 115.02 69.46 115.02 70.63 112.89 77.6 112.89"/>
        <polygon class="cls-2" points="67.65 109.37 66.82 111.48 59.51 111.48 60.67 109.37 67.65 109.37"/>
        <polygon class="cls-2" points="67.02 112.89 66.2 115.02 58.88 115.02 60.04 112.89 67.02 112.89"/>
        <polygon class="cls-2" points="65.84 116.82 65.01 118.94 57.7 118.94 58.86 116.82 65.84 116.82"/>
        <polygon class="cls-2" points="57.7 109.37 56.88 111.48 49.56 111.48 50.72 109.37 57.7 109.37"/>
        <polygon class="cls-2" points="56.79 112.89 55.97 115.02 48.65 115.02 49.82 112.89 56.79 112.89"/>
        <polygon class="cls-2" points="54.64 116.82 53.82 118.94 46.5 118.94 47.67 116.82 54.64 116.82"/>
        <polygon class="cls-2" points="47.75 109.37 46.93 111.48 39.61 111.48 40.77 109.37 47.75 109.37"/>
        <polygon class="cls-2" points="46.84 112.89 46.02 115.02 38.7 115.02 39.87 112.89 46.84 112.89"/>
        <polygon class="cls-2" points="44.69 116.82 43.87 118.94 36.55 118.94 37.72 116.82 44.69 116.82"/>
        <path d="M38.69,106.08c-.1.14-.21.27-.31.41h-.67c.09-.04.19-.07.29-.12.23-.09.46-.18.7-.29Z"/>
        <path d="M36.9,36.02c.76-.11,1.6.33,1.58,1.32,0,.47-.02.93-.03,1.4-.45,0-.9,0-1.36.02-1.46.02-1.73-1.81-.82-2.5.06-.05.11-.08.18-.1.06-.03.11-.06.17-.07.08-.03.17-.05.25-.06,0,0,.03,0,.04,0Z"/>
        <path d="M37.09,38.76c.45,0,.9,0,1.36-.02-.09,4.51-.18,9.03-.24,13.55-.25,17.14-.33,34.28-.22,51.43h-.09c-.31.02-.58.03-.89.19-.52.29-.93,1.05-1.29,1.51-.08.11-.17.21-.25.32-.15-.2-.24-.47-.24-.78-.04-4.98-.06-9.97-.06-14.95,0-17.56.17-35.12.54-52.68,0-.51.24-.87.56-1.08-.9.69-.64,2.52.82,2.5Z"/>
        <path d="M37.7,106.49h.67c-5.98,7.69-11.44,15.76-16.37,24.14-.74,0-1.49,0-2.21.08-.08,0-.18,0-.25,0,.06.11.12.21.18.32-.41-.13-.9-.06-1.27.18,1.31-2.29,2.67-4.56,4.06-6.8,2.94-4.73,6.05-9.35,9.34-13.85.89-1.21,1.78-2.41,2.69-3.61.3-.4.62-.8.92-1.2.51.72,1.74.74,2.28.04l.24.58c-.09.05-.19.08-.29.12Z"/>
        <path d="M37.99,104.97c0,.33-.09.61-.25.82-.54.7-1.77.68-2.28-.04.08-.11.17-.21.25-.32.36-.46.78-1.23,1.29-1.51.3-.17.57-.18.89-.19h.09c0,.42,0,.83,0,1.25Z"/>
        <path d="M36.86,36.02c-.08.02-.17.04-.25.06.07-.04.16-.06.25-.06Z"/>
        <path d="M36.61,36.08c-.06.02-.11.05-.17.07.06-.04.1-.06.17-.07Z"/>
        <path d="M36.44,36.16c-.06.02-.12.06-.18.1.06-.05.11-.07.18-.1Z"/>
        <path d="M22,130.63c-.43.72-.85,1.44-1.26,2.16-.06-.11-.13-.23-.19-.34,0-.06,0-.1,0-.16.06-.7-.31-1.12-.82-1.26-.06-.11-.12-.21-.18-.32.07,0,.17,0,.25,0,.72-.07,1.47-.09,2.21-.08Z"/>
        <path d="M20.78,137.25c-.44-.33-.89-.67-1.34-1.02.08,0,.18,0,.26,0,.3-.03.6-.05.9-.05.05.35.1.71.18,1.06Z"/>
        <path d="M19.73,131.04c.51.14.89.55.82,1.26,0,.06,0,.1,0,.16-.27-.47-.54-.94-.81-1.41Z"/>
        <path d="M19.73,131.04c.27.47.54.94.81,1.41-.04.35-.06.69-.06,1.03h-.93c-1.06,0-1.73-1.17-1.2-2.09.04-.06.07-.12.11-.18.38-.24.87-.3,1.27-.18Z"/>
      </g>
      <g>
        <path class="cls-4" d="M141.88,96.65H42.38c.17-39.67.21-50.47.22-53.42v-1.1"/>
        <path class="cls-4" d="M41.21,43.23h99.5c-.17,39.67-.21,50.47-.23,53.42v1.1"/>
        <polygon class="cls-8" points="40.77 109.37 39.61 111.48 46.93 111.48 47.75 109.37 40.77 109.37"/>
        <polygon class="cls-8" points="50.72 109.37 49.56 111.48 56.88 111.48 57.7 109.37 50.72 109.37"/>
        <polygon class="cls-8" points="60.67 109.37 59.51 111.48 66.82 111.48 67.65 109.37 60.67 109.37"/>
        <polygon class="cls-8" points="70.63 109.37 69.46 111.48 76.78 111.48 77.6 109.37 70.63 109.37"/>
        <polygon class="cls-8" points="135.81 109.37 136.97 111.48 129.65 111.48 128.84 109.37 135.81 109.37"/>
        <polygon class="cls-8" points="125.86 109.37 127.02 111.48 119.7 111.48 118.88 109.37 125.86 109.37"/>
        <polygon class="cls-8" points="115.91 109.37 117.07 111.48 109.76 111.48 108.93 109.37 115.91 109.37"/>
        <rect class="cls-8" x="79.86" y="109.37" width="7.01" height="2.11"/>
        <rect class="cls-8" x="89.77" y="109.37" width="7" height="2.11"/>
        <rect class="cls-8" x="99.71" y="109.37" width="7" height="2.11"/>
        <polygon class="cls-8" points="60.04 112.89 58.88 115.02 66.2 115.02 67.02 112.89 60.04 112.89"/>
        <polygon class="cls-8" points="70.63 112.89 69.46 115.02 76.78 115.02 77.6 112.89 70.63 112.89"/>
        <polygon class="cls-8" points="125.86 112.89 127.02 115.02 119.7 115.02 118.88 112.89 125.86 112.89"/>
        <polygon class="cls-8" points="115.91 112.89 117.07 115.02 109.76 115.02 108.93 112.89 115.91 112.89"/>
        <rect class="cls-8" x="79.86" y="112.89" width="7.01" height="2.12"/>
        <rect class="cls-8" x="89.77" y="112.89" width="7" height="2.12"/>
        <rect class="cls-8" x="99.71" y="112.89" width="7" height="2.12"/>
        <polygon class="cls-8" points="129.99 112.89 130.7 115.47 148.99 115.47 145.33 109.37 138.24 109.37 138.79 111.48 140.27 111.48 140.97 112.89 129.99 112.89"/>
        <polygon class="cls-8" points="37.72 116.82 36.55 118.94 43.87 118.94 44.69 116.82 37.72 116.82"/>
        <polygon class="cls-8" points="47.67 116.82 46.5 118.94 53.82 118.94 54.64 116.82 47.67 116.82"/>
        <polygon class="cls-8" points="58.86 116.82 57.7 118.94 65.01 118.94 65.84 116.82 58.86 116.82"/>
        <polygon class="cls-8" points="68.33 116.35 67.65 119.51 118.88 119.51 117.98 116.35 68.33 116.35"/>
        <polygon class="cls-8" points="120.8 116.82 121.55 119.51 129.6 119.51 128.84 116.82 120.8 116.82"/>
        <polygon class="cls-8" points="132.43 118.15 137.16 118.15 137.65 119.73 133.05 119.73 132.43 118.15"/>
        <polygon class="cls-8" points="138.58 118.15 139.2 119.73 143.99 119.73 143.31 118.15 138.58 118.15"/>
        <polygon class="cls-8" points="144.93 118.15 145.54 119.73 149.73 119.73 149.25 118.15 144.93 118.15"/>
        <polygon class="cls-8" points="137.65 116.13 138.26 117.51 143.14 117.51 142.25 116.13 137.65 116.13"/>
        <polygon class="cls-8" points="76.85 120.77 74.21 129.57 111.72 129.57 109.16 120.77 76.85 120.77"/>
        <polygon class="cls-8" points="39.87 112.89 38.7 115.02 46.02 115.02 46.84 112.89 39.87 112.89"/>
        <polygon class="cls-8" points="49.82 112.89 48.65 115.02 55.97 115.02 56.79 112.89 49.82 112.89"/>
      </g>
    </g>
  </g>
</svg>