<?xml version="1.0" encoding="UTF-8"?>
<svg id="Lag_2" data-name="Lag 2" xmlns="http://www.w3.org/2000/svg" viewBox="0 0 187.04 187.04">
  <defs>
    <style>
      .cls-1 {
        fill: #bfd3d7;
      }

      .cls-2 {
        fill: #fff;
      }

      .cls-3 {
        fill: none;
        stroke: #000;
        stroke-miterlimit: 10;
        stroke-width: 3px;
      }
    </style>
  </defs>
  <g id="Lag_1-2" data-name="Lag 1">
    <g>
      <circle class="cls-1" cx="93.52" cy="93.52" r="93.52"/>
      <g>
        <g>
          <path d="M151.13,133.59c3.98,6.6,3.02,15.69-.32,22.33-3.28,6.51-9.58,11.56-16.74,13.09-4.15.88-7.95.08-11.55-2.13-3.47-2.13-6.68-4.78-9.73-7.47.36-.16.71-.34,1.06-.53.59-.32.72-.88.55-1.37,3.04,2.69,6.25,5.37,9.76,7.44,1.81,1.07,3.79,1.89,5.92,1.96,1.95.07,3.88-.36,5.71-.97,6.13-2.07,11.16-6.91,13.59-12.89,2.44-6.01,2.85-14.02-1.24-19.43-4.06-5.37-11.54-6.94-17.45-3.84l-.41-.78c.27-.23.45-.55.41-.91-.04-.34-.08-.69-.14-1.03.53-.23,1.06-.44,1.61-.62,7.15-2.32,15.11.75,18.97,7.15Z"/>
          <path class="cls-2" d="M148.14,133.62c4.09,5.41,3.68,13.42,1.24,19.43-2.43,5.98-7.46,10.82-13.59,12.89-1.83.61-3.76,1.04-5.71.97-2.13-.07-4.11-.89-5.92-1.96-3.51-2.07-6.72-4.75-9.76-7.44-.21-.68-.98-1.23-1.81-.79-3.99,2.11-8.42,3.29-12.93,3.39-4.85.11-9.37-1.23-13.91-2.78-.37-.12-.68-.08-.93.07h-.01c-.21.04-.42.14-.62.32-2.9,2.65-5.96,5.14-9.22,7.35-3.18,2.16-6.48,3.41-10.34,2.42-3.41-.87-6.58-2.86-9.29-5.08-2.53-2.07-4.78-4.5-6.47-7.32-3.17-5.26-4.07-11.75-1.47-17.45,2.76-6.05,8.87-9.24,15.44-8.06,1.79.32,3.46.91,5.01,1.7,5.23,2.69,9.03,7.77,11.31,13.23.61,1.46,3.03.82,2.41-.66-2.42-5.8-6.28-11.24-11.75-14.36.35-6.08,1.55-12.07,3.56-17.82,2.55-3.95,4.44-8.3,5.56-12.89.18-.73-.26-1.27-.82-1.47l.19-.43c4.62,2.05,9.77,3.2,15.21,3.2,7.19,0,13.89-2,19.51-5.45l.3.48c-.78.2-1.4,1.31-.73,2.17,4.25,5.44,8.22,10.93,11.71,16.89,0,.02.01.05.02.07,2.02,4.36,3.32,9.08,3.86,13.85l.03.21c-2.36,1.45-4.49,3.35-6.39,5.28-2.92,2.97-5.32,6.5-6.26,10.61-.36,1.57,2.05,2.24,2.41.66.74-3.23,2.45-6.04,4.66-8.49,2.19-2.41,4.76-4.72,7.59-6.34.15-.09.3-.17.46-.24,5.91-3.1,13.39-1.53,17.45,3.84ZM144.52,151.47c3.19-7.22,1.79-14.83-3.13-17-4.92-2.18-11.49,1.92-14.68,9.14s-1.79,14.83,3.13,17.01c4.92,2.17,11.49-1.93,14.68-9.15ZM98.85,148.96c8.85-.59,15.37-10.93,14.57-23.1-.8-12.18-8.63-21.57-17.48-20.99-8.86.59-15.38,10.93-14.58,23.1.81,12.18,8.63,21.57,17.49,20.99ZM69.38,161.69c4.92-2.18,6.32-9.79,3.13-17.01s-9.76-11.32-14.68-9.14c-4.91,2.17-6.32,9.78-3.13,17s9.76,11.32,14.68,9.15Z"/>
          <path d="M145.86,111.77c1.3,2.66,2.67,6.36.35,8.87-1.88,2.02-5.34,3.31-8.03,3.61-3.55.4-6.46-1.09-8.84-3.35-.71-2.71-1.66-5.36-2.85-7.92h.02c2.51,4.3,6.11,9.65,11.77,8.75,1.49-.24,2.91-.85,4.24-1.54,1.21-.63,2.41-1.33,2.45-2.85.08-2.71-1.84-5.6-3.25-7.8-5.46-8.45-14.35-14.44-24.18-16.48-.59-.12-.86-.53-.89-.97.57-.46,1.12-.93,1.66-1.42,6.25,1.31,12.07,4.15,17.04,8.15,4.33,3.48,8.07,7.94,10.51,12.95Z"/>
          <path class="cls-2" d="M141.72,109.54c1.41,2.2,3.33,5.09,3.25,7.8-.04,1.52-1.24,2.22-2.45,2.85-1.33.69-2.75,1.3-4.24,1.54-5.66.9-9.26-4.45-11.77-8.76-.15-.26-.3-.51-.44-.76-3.4-5.92-7.5-11.32-11.7-16.69-.31-.4-.69-.5-1.04-.41l-.3-.48c1.27-.78,2.47-1.63,3.62-2.54.03.44.3.85.89.97,9.83,2.04,18.72,8.03,24.18,16.48Z"/>
          <path class="cls-2" d="M141.39,134.47c4.92,2.17,6.32,9.78,3.13,17s-9.76,11.32-14.68,9.15c-4.92-2.18-6.32-9.79-3.13-17.01s9.76-11.32,14.68-9.14Z"/>
          <path d="M136.12,30.56c1.29,4.5,2.32,9.97.49,14.45-1.6,3.92-4.9,6.95-8.96,8.15-.33.1-.62.09-.87,0-.28-.66-.59-1.3-.91-1.94.12-.42.43-.79.98-.95,3.63-1.07,6.5-4.06,7.43-7.74.5-1.98.31-4.07,0-6.07-.32-2.06-.69-4.14-1.38-6.12-1.29-3.75-4.2-6.31-7.94-7.51-2.05-.67-4.19-.94-6.34-1-1.99-.06-4.15-.06-5.99.83-1.71.82-2.97,2.4-4.03,3.93-1.13,1.65-2.06,3.43-2.05,5.47,0,1.21-1.16,1.66-2.04,1.36-.53-.18-.95-.63-.96-1.36-.01-2.86,1.29-5.41,2.95-7.67,1.58-2.13,3.37-3.97,5.92-4.87,2.32-.81,4.93-.8,7.34-.64,2.52.16,5.03.6,7.37,1.56,4.56,1.86,7.63,5.4,8.99,10.12Z"/>
          <path class="cls-2" d="M134.28,36.46c.31,2,.5,4.09,0,6.07-.93,3.68-3.8,6.67-7.43,7.74-.55.16-.86.53-.98.95-.89-1.73-1.92-3.37-3.09-4.93l.25-.2c.32.52.97.84,1.66.44,4.58-2.67,4.77-8.55,2.58-12.86-1.1-2.18-2.8-4.13-5.21-4.84-2.22-.65-4.81-.4-7,.26-2.49.74-4.69,2.18-6.15,4.35-.45.67-.13,1.32.4,1.63l-.15.32c-1.51-.7-3.08-1.29-4.71-1.78l.06-.19c.88.3,2.05-.15,2.04-1.36-.01-2.04.92-3.82,2.05-5.47,1.06-1.53,2.32-3.11,4.03-3.93,1.84-.89,4-.89,5.99-.83,2.15.06,4.29.33,6.34,1,3.74,1.2,6.65,3.76,7.94,7.51.69,1.98,1.06,4.06,1.38,6.12Z"/>
          <path d="M130.69,128.09c.04.36-.14.68-.41.91-.24.21-.55.34-.84.34-.65,0-1.08-.46-1.22-1.04.75-.46,1.53-.88,2.33-1.24.06.34.1.69.14,1.03Z"/>
          <path d="M130.28,129l.41.78c-.16.07-.31.15-.46.24-2.83,1.62-5.4,3.93-7.59,6.34-2.21,2.45-3.92,5.26-4.66,8.49-.36,1.58-2.77.91-2.41-.66.94-4.11,3.34-7.64,6.26-10.61,1.9-1.93,4.03-3.83,6.39-5.28.14.58.57,1.04,1.22,1.04.29,0,.6-.13.84-.34Z"/>
          <path d="M129.34,120.9c.54,2.02.95,4.08,1.21,6.16-.8.36-1.58.78-2.33,1.24l-.03-.21c-.54-4.77-1.84-9.49-3.86-13.85-.01-.02-.02-.05-.02-.07.05.09.1.17.15.26,1.31,2.25,2.91,4.62,4.88,6.47Z"/>
          <path d="M127.27,33.67c2.19,4.31,2,10.19-2.58,12.86-.69.4-1.34.08-1.66-.44-.33-.54-.31-1.31.4-1.72,4.41-2.57,2.99-9.39-.38-12.24-1.79-1.52-4.56-1.33-6.7-.8-2.08.51-4.07,1.56-5.28,3.37-.45.67-1.21.69-1.76.37-.53-.31-.85-.96-.4-1.63,1.46-2.17,3.66-3.61,6.15-4.35,2.19-.66,4.78-.91,7-.26,2.41.71,4.11,2.66,5.21,4.84Z"/>
          <path d="M126.49,112.98c1.19,2.56,2.14,5.21,2.85,7.92-1.97-1.85-3.57-4.22-4.88-6.47-.05-.09-.1-.17-.15-.26-.26-.59-.14-1.28.47-1.64.54-.31,1.42-.16,1.71.45Z"/>
          <path class="cls-2" d="M126.78,53.16c1.71,3.97,2.66,8.32,2.66,12.88,0,9.69-4.27,18.43-11.13,24.63-.04,0-.07-.01-.11-.02-.99-.2-1.62.68-1.55,1.44-1.15.91-2.35,1.76-3.62,2.54-5.62,3.45-12.32,5.45-19.51,5.45-5.44,0-10.59-1.15-15.21-3.2-1.82-.8-3.55-1.75-5.19-2.82-.18-.26-.45-.46-.76-.52-8.95-6.18-14.76-16.2-14.76-27.5,0-1.57.11-3.11.33-4.62.6-.42.71-1.34.35-2.01.23-1.09.51-2.16.84-3.2.02.01.05.01.07.02,1.53.35,2.2-1.92.78-2.37,1.98-4.9,5.12-9.25,9.1-12.76.46.22.99.18,1.4-.22.3-.29.43-.79.33-1.21,1.02-.79,2.09-1.53,3.21-2.22.63.04,1.31-.3,1.57-.91,5.28-2.89,11.41-4.54,17.94-4.54,3.81,0,7.49.56,10.93,1.61,1.63.49,3.2,1.08,4.71,1.78,5.45,2.5,10.14,6.27,13.62,10.9,1.17,1.56,2.2,3.2,3.09,4.93-.23.76.15,1.69.91,1.94ZM111.57,83.03c0-8.46-7.24-15.33-16.18-15.33s-16.17,6.87-16.17,15.33,7.24,15.33,16.17,15.33,16.18-6.86,16.18-15.33ZM103.91,65.18c4.83,0,4.83-7.5,0-7.5s-4.83,7.5,0,7.5ZM82.26,68c4.83,0,4.84-7.5,0-7.5s-4.83,7.5,0,7.5Z"/>
          <path d="M126.51,112.97h-.02c-.29-.6-1.17-.75-1.71-.44-.61.36-.73,1.05-.47,1.64-3.49-5.96-7.46-11.45-11.71-16.89-.67-.86-.05-1.97.73-2.17.35-.09.73.01,1.04.41,4.2,5.37,8.3,10.77,11.7,16.69.14.25.29.5.44.76Z"/>
          <path d="M125.87,51.22c.32.64.63,1.28.91,1.94-.76-.25-1.14-1.18-.91-1.94Z"/>
          <path class="cls-2" d="M123.05,32.13c3.37,2.85,4.79,9.67.38,12.24-.71.41-.73,1.18-.4,1.72l-.25.2c-3.48-4.63-8.17-8.4-13.62-10.9l.15-.32c.55.32,1.31.3,1.76-.37,1.21-1.81,3.2-2.86,5.28-3.37,2.14-.53,4.91-.72,6.7.8Z"/>
          <path d="M118.2,90.65s.07.02.11.02c-.54.49-1.09.96-1.66,1.42-.07-.76.56-1.64,1.55-1.44Z"/>
          <path d="M114.4,157.51c.17.49.04,1.05-.55,1.37-.35.19-.7.37-1.06.53-.14-.12-.27-.24-.41-.36-1.21-1.07.56-2.84,1.76-1.77.09.08.17.15.26.23Z"/>
          <path d="M114.4,157.51c-.09-.08-.17-.15-.26-.23-1.2-1.07-2.97.7-1.76,1.77.14.12.27.24.41.36-3.97,1.93-8.29,3.02-12.71,3.19-5.06.18-9.82-1.11-14.57-2.71.15-.14.3-.27.45-.41.99-.9-.08-2.27-1.14-2.08.25-.15.56-.19.93-.07,4.54,1.55,9.06,2.89,13.91,2.78,4.51-.1,8.94-1.28,12.93-3.39.83-.44,1.6.11,1.81.79Z"/>
          <path class="cls-2" d="M113.42,125.86c.8,12.17-5.72,22.51-14.57,23.1-8.86.58-16.68-8.81-17.49-20.99-.8-12.17,5.72-22.51,14.58-23.1,8.85-.58,16.68,8.81,17.48,20.99Z"/>
          <path class="cls-2" d="M95.39,67.7c8.94,0,16.18,6.87,16.18,15.33s-7.24,15.33-16.18,15.33-16.17-6.86-16.17-15.33,7.24-15.33,16.17-15.33ZM102.91,87.58c.46-1.55-1.95-2.21-2.41-.66-.43,1.46-1.71,2.42-3.12,2.84-.27-.86-.47-1.74-.63-2.63-.16-.97-.25-2.12-.26-3.26,2.82-1.66,2.19-7.01-1.9-7.01-4.61,0-4.82,6.87-.59,7.46.04,1.92.33,3.83.85,5.68-.77-.04-1.54-.17-2.29-.36-.97-.24-1.89-.57-2.59-1.31-1.1-1.18-2.86.59-1.77,1.76.96,1.03,2.27,1.59,3.6,1.94,1.55.4,3.2.61,4.79.41.02,0,.05,0,.07,0,2.8-.37,5.42-2.03,6.25-4.85Z"/>
          <path d="M103.91,57.68c4.83,0,4.83,7.5,0,7.5s-4.83-7.5,0-7.5Z"/>
          <path d="M100.5,86.92c.46-1.55,2.87-.89,2.41.66-.83,2.82-3.45,4.48-6.25,4.85l-.03-.18c.06-.01.12-.02.17-.04.61-.2,1.1-.88.87-1.54-.1-.3-.2-.6-.29-.91,1.41-.42,2.69-1.38,3.12-2.84Z"/>
          <path d="M97.67,90.67c.23.66-.26,1.34-.87,1.54-.05.02-.11.03-.17.04-.61.1-1.18-.35-1.37-.91-.15-.44-.29-.89-.41-1.34.42.03.85.03,1.28-.01.42-.03.84-.11,1.25-.23.09.31.19.61.29.91Z"/>
          <path d="M96.75,87.13c.16.89.36,1.77.63,2.63-.41.12-.83.2-1.25.23-.43.04-.86.04-1.28.01-.52-1.85-.81-3.76-.85-5.68.19.03.38.04.59.04.75,0,1.39-.18,1.9-.49.01,1.14.1,2.29.26,3.26Z"/>
          <path d="M96.63,92.25l.03.18s-.05,0-.07,0c-1.59.2-3.24,0-4.79-.41-1.33-.35-2.64-.91-3.6-1.94-1.09-1.17.67-2.94,1.77-1.76.7.74,1.62,1.07,2.59,1.31.75.19,1.52.32,2.29.36.12.45.26.9.41,1.34.19.56.76,1.01,1.37.91Z"/>
          <path d="M94.59,76.86c4.09,0,4.72,5.35,1.9,7.01v-.2c0-.65-.58-1.28-1.25-1.25-.68.03-1.25.55-1.25,1.25,0,.22,0,.43.01.65-4.23-.59-4.02-7.46.59-7.46Z"/>
          <path d="M96.49,83.67v.2c-.51.31-1.15.49-1.9.49-.21,0-.4-.01-.59-.04-.01-.22-.01-.43-.01-.65,0-.7.57-1.22,1.25-1.25.67-.03,1.25.6,1.25,1.25Z"/>
          <path d="M84.82,157.4c1.06-.19,2.13,1.18,1.14,2.08-.15.14-.3.27-.45.41-.14-.05-.29-.1-.43-.15-1.14-.39-1.05-1.87-.27-2.34h.01Z"/>
          <path d="M85.08,159.74c.14.05.29.1.43.15-3.5,3.18-7.3,6.41-11.44,8.68-4.14,2.26-8.54,2.2-12.84.38-6.87-2.91-13.12-8.73-16.07-15.62-2.7-6.32-2.41-13.9,1.61-19.63,2.48-3.54,6.08-5.71,10.03-6.49,2.98-.59,6.16-.4,9.21.59.47.15.93.32,1.38.51l-.09,1.47c-.03.61.3.99.74,1.14l-.19.36c-1.55-.79-3.22-1.38-5.01-1.7-6.57-1.18-12.68,2.01-15.44,8.06-2.6,5.7-1.7,12.19,1.47,17.45,1.69,2.82,3.94,5.25,6.47,7.32,2.71,2.22,5.88,4.21,9.29,5.08,3.86.99,7.16-.26,10.34-2.42,3.26-2.21,6.32-4.7,9.22-7.35.2-.18.41-.28.62-.32-.78.47-.87,1.95.27,2.34Z"/>
          <path d="M82.26,60.5c4.84,0,4.83,7.5,0,7.5s-4.82-7.5,0-7.5Z"/>
          <path d="M81.57,143.85c.62,1.48-1.8,2.12-2.41.66-2.28-5.46-6.08-10.54-11.31-13.23l.19-.36c.72.24,1.7-.14,1.76-1.14,0-.1,0-.19.02-.29,5.47,3.12,9.33,8.56,11.75,14.36Z"/>
          <path d="M78.12,97.31c.56.2,1,.74.82,1.47-1.12,4.59-3.01,8.94-5.56,12.89.03-.08.05-.15.08-.23.51-1.44-1.65-2.1-2.32-.87h-.02c2.49-3.82,4.33-8.03,5.41-12.46.2-.83.97-1.03,1.59-.8Z"/>
          <path class="cls-2" d="M78.31,96.88l-.19.43c-.62-.23-1.39-.03-1.59.8-1.08,4.43-2.92,8.64-5.41,12.45-2.72,4.2-6.23,7.89-10.35,10.78-2.06,1.45-4.38,3.23-7.03,2.54-2.24-.58-5.28-2.39-5.32-4.99-.04-2.58,2.29-4.83,3.89-6.58,1.85-2.01,3.78-3.93,5.8-5.76,4.51-4.07,9.43-7.64,14.67-10.69.75-.43.73-1.26.34-1.8,1.64,1.07,3.37,2.02,5.19,2.82Z"/>
          <path d="M75.67,35.59c.08.36.04.68-.09.95-.53.29-1.06.6-1.57.91-.56-.02-1.08-.34-1.24-1.06-.5-2.22-2.02-3.87-3.7-5.32-1.64-1.42-3.45-2.6-5.68-2.68-2.05-.08-4.13.49-6.07,1.09-1.98.63-3.9,1.48-5.61,2.68-3.36,2.38-4.98,5.87-5.11,9.93-.13,3.91-.06,8.55,2.22,11.89,1.84,2.7,4.97,4.48,8.22,4.68.6.03,1.01.34,1.24.75-.14.66-.26,1.33-.35,2.01-.22.17-.52.26-.89.24-4.73-.29-9.2-3-11.45-7.23-1.19-2.21-1.6-4.67-1.81-7.14-.2-2.53-.33-5.09.03-7.61.68-4.86,3.73-8.75,7.98-11.1,2.2-1.22,4.6-2.04,7.04-2.62,2.43-.57,5.08-.9,7.5-.07,2.2.77,4.1,2.28,5.76,3.87,1.67,1.61,3.06,3.54,3.58,5.83Z"/>
          <path d="M75.58,36.54c-.26.61-.94.95-1.57.91.51-.31,1.04-.62,1.57-.91Z"/>
          <path d="M71.14,110.57c.67-1.23,2.83-.57,2.32.87-.03.08-.05.15-.08.23-.81,1.26-1.69,2.48-2.63,3.66-.52.65-1.06,1.29-1.62,1.93.52-2.19,1.17-4.35,1.92-6.48l.09-.21Z"/>
          <path d="M73.12,94.06c.39.54.41,1.37-.34,1.8-5.24,3.05-10.16,6.62-14.67,10.69-2.02,1.83-3.95,3.75-5.8,5.76-1.6,1.75-3.93,4-3.89,6.58.04,2.6,3.08,4.41,5.32,4.99,2.65.69,4.97-1.09,7.03-2.54,4.12-2.89,7.63-6.58,10.35-10.78h.02c-.03.08-.06.15-.09.22-.75,2.13-1.4,4.29-1.92,6.48-3.07,3.46-6.85,6.69-10.96,8.58-.51.23-1.02.41-1.54.52-2.27.48-4.54-.17-6.6-1.41-2.32-1.39-4.27-3.59-4.1-6.46.18-2.89,2.19-5.26,4.04-7.32,2.11-2.34,4.35-4.57,6.7-6.68,4.57-4.09,9.55-7.7,14.85-10.79.29-.17.58-.21.84-.16.25.18.5.35.76.52Z"/>
          <path class="cls-2" d="M72.51,144.68c3.19,7.22,1.79,14.83-3.13,17.01-4.92,2.17-11.49-1.93-14.68-9.15s-1.78-14.83,3.13-17c4.92-2.18,11.49,1.92,14.68,9.14Z"/>
          <path class="cls-2" d="M72.77,36.39c.16.72.68,1.04,1.24,1.06-1.12.69-2.19,1.43-3.21,2.22-.05-.22-.15-.42-.33-.56-3.64-2.95-9.19-3.08-13.28-.94-4.48,2.33-5.44,8.99-3.57,13.28,1.01,2.31,3.03,4.17,5.5,4.76-.33,1.04-.61,2.11-.84,3.2-.23-.41-.64-.72-1.24-.75-3.25-.2-6.38-1.98-8.22-4.68-2.28-3.34-2.35-7.98-2.22-11.89.13-4.06,1.75-7.55,5.11-9.93,1.71-1.2,3.63-2.05,5.61-2.68,1.94-.6,4.02-1.17,6.07-1.09,2.23.08,4.04,1.26,5.68,2.68,1.68,1.45,3.2,3.1,3.7,5.32Z"/>
          <path d="M73.12,94.06c-.26-.17-.51-.34-.76-.52.31.06.58.26.76.52Z"/>
          <path d="M70.75,115.33c.94-1.18,1.82-2.4,2.63-3.66-2.01,5.75-3.21,11.74-3.56,17.82-.78-.44-1.59-.84-2.43-1.18.28-3.72.86-7.42,1.74-11.05.56-.64,1.1-1.28,1.62-1.93Z"/>
          <path d="M70.8,39.67c.1.42-.03.92-.33,1.21-.41.4-.94.44-1.4.22.56-.49,1.14-.97,1.73-1.43Z"/>
          <path d="M70.47,39.11c.18.14.28.34.33.56-.59.46-1.17.94-1.73,1.43-.13-.05-.25-.13-.37-.22-1.75-1.42-4.1-1.78-6.3-1.6-2.22.17-4.79.89-5.98,2.93-2.22,3.78-1.5,10.48,3.44,11.61.04,0,.08.02.11.04-.31.77-.6,1.55-.85,2.35-2.47-.59-4.49-2.45-5.5-4.76-1.87-4.29-.91-10.95,3.57-13.28,4.09-2.14,9.64-2.01,13.28.94Z"/>
          <path d="M69.82,129.49c-.01.1-.01.19-.02.29-.06,1-1.04,1.38-1.76,1.14-.44-.15-.77-.53-.74-1.14l.09-1.47c.84.34,1.65.74,2.43,1.18Z"/>
          <path class="cls-2" d="M68.7,40.88c.12.09.24.17.37.22-3.98,3.51-7.12,7.86-9.1,12.76-.03-.02-.07-.03-.11-.04-4.94-1.13-5.66-7.83-3.44-11.61,1.19-2.04,3.76-2.76,5.98-2.93,2.2-.18,4.55.18,6.3,1.6Z"/>
          <path d="M59.97,53.86c1.42.45.75,2.72-.78,2.37-.02-.01-.05-.01-.07-.02.25-.8.54-1.58.85-2.35Z"/>
          <path d="M58.28,59.41c.36.67.25,1.59-.35,2.01.09-.68.21-1.35.35-2.01Z"/>
        </g>
        <g>
          <path class="cls-3" d="M75.58,36.54c5.28-2.89,11.41-4.54,17.94-4.54,3.81,0,7.49.56,10.93,1.61,1.63.49,3.2,1.08,4.71,1.78,5.45,2.5,10.14,6.27,13.62,10.9,1.17,1.56,2.2,3.2,3.09,4.93"/>
          <path class="cls-3" d="M70.8,39.67c1.02-.79,2.09-1.53,3.21-2.22"/>
          <path class="cls-3" d="M59.97,53.86c1.98-4.9,5.12-9.25,9.1-12.76"/>
          <path class="cls-3" d="M58.28,59.41c.23-1.09.51-2.16.84-3.2"/>
          <path class="cls-3" d="M72.36,93.54c-8.95-6.18-14.76-16.2-14.76-27.5,0-1.57.11-3.11.33-4.62"/>
          <path class="cls-3" d="M116.65,92.09c-1.15.91-2.35,1.76-3.62,2.54-5.62,3.45-12.32,5.45-19.51,5.45-5.44,0-10.59-1.15-15.21-3.2-1.82-.8-3.55-1.75-5.19-2.82"/>
          <path class="cls-3" d="M126.78,53.16c1.71,3.97,2.66,8.32,2.66,12.88,0,9.69-4.27,18.43-11.13,24.63"/>
          <path class="cls-3" d="M111.57,83.03c0,8.47-7.24,15.33-16.18,15.33s-16.17-6.86-16.17-15.33,7.24-15.33,16.17-15.33,16.18,6.87,16.18,15.33Z"/>
          <path class="cls-3" d="M113.42,125.86c.8,12.17-5.72,22.51-14.57,23.1-8.86.58-16.68-8.81-17.49-20.99-.8-12.17,5.72-22.51,14.58-23.1,8.85-.58,16.68,8.81,17.48,20.99Z"/>
          <path class="cls-3" d="M72.51,144.68c3.19,7.22,1.79,14.83-3.13,17.01-4.92,2.17-11.49-1.93-14.68-9.15s-1.78-14.83,3.13-17c4.92-2.18,11.49,1.92,14.68,9.14Z"/>
          <path class="cls-3" d="M126.71,143.61c-3.19,7.22-1.79,14.83,3.13,17.01,4.92,2.17,11.49-1.93,14.68-9.15s1.79-14.83-3.13-17c-4.92-2.18-11.49,1.92-14.68,9.14Z"/>
        </g>
      </g>
    </g>
    <path d="M58.88,52.62c-.08.33-.18.66-.3.98-.02.05-.23.56-.13.32-.06.14-.12.27-.18.41-.33.75-.63,1.5-.85,2.29-.4,1.44-.62,2.94-.89,4.41-.14.77.21,1.65,1.05,1.85.73.17,1.7-.22,1.85-1.05.27-1.47.49-2.97.89-4.41s1.1-2.44,1.46-4c.17-.76-.23-1.66-1.05-1.85-.76-.17-1.66.23-1.85,1.05h0Z"/>
    <path d="M70.23,42.13c.13-.14.26-.28.4-.4.07-.06.14-.12.21-.19s.16-.13.03-.03c.31-.24.63-.46.94-.69.64-.47,1.26-.95,1.92-1.38s1.34-.84,2.02-1.26c.32-.2.64-.4.97-.58.16-.09.33-.16.5-.25.2-.11-.19.06.03-.01.11-.04.22-.08.33-.12.74-.24,1.31-1.05,1.05-1.85-.24-.74-1.05-1.31-1.85-1.05-.84.27-1.6.69-2.35,1.15s-1.48.9-2.2,1.38c-.68.45-1.33.95-1.98,1.43-.73.54-1.52,1.05-2.13,1.74-.52.59-.62,1.55,0,2.12.57.52,1.56.63,2.12,0h0Z"/>
    <path d="M124.27,51.38c.48.9.95,1.81,1.35,2.75l-.15-.36c.06.15.11.31.14.48l-.05-.4c0,.08,0,.16,0,.24-.04.36.2.82.44,1.06.26.26.69.46,1.06.44s.79-.14,1.06-.44l.23-.3c.14-.23.2-.49.2-.76.06-.54-.15-1.05-.36-1.53-.13-.3-.27-.6-.42-.9-.29-.6-.59-1.2-.91-1.79-.37-.69-1.39-.97-2.05-.54-.7.45-.94,1.31-.54,2.05h0Z"/>
    <path d="M117.71,93.17c.28-.34.65-.6.99-.87.36-.29.72-.59,1.08-.88.15-.14.25-.3.31-.48.09-.18.14-.37.13-.58,0-.21-.04-.4-.13-.58-.06-.19-.16-.35-.31-.48-.29-.26-.66-.46-1.06-.44l-.4.05c-.25.07-.47.2-.66.39-.36.29-.72.59-1.08.88-.34.28-.71.54-.99.87-.15.14-.25.3-.31.48-.09.18-.14.37-.13.58,0,.21.04.4.13.58.06.19.16.35.31.48.29.26.66.46,1.06.44.38-.02.81-.14,1.06-.44h0Z"/>
    <path d="M74.94,93.59c-.74-.75-1.64-1.28-2.63-1.62-.2-.06-.4-.07-.6-.03-.2,0-.39.07-.56.18-.17.09-.32.22-.42.39-.13.14-.22.31-.27.51-.09.38-.07.81.15,1.16l.23.3c.19.19.41.31.66.39.11.04.23.08.34.13l-.36-.15c.4.17.77.39,1.11.65l-.3-.23c.18.14.36.29.52.46.27.27.68.44,1.06.44.21,0,.4-.04.58-.13.19-.06.35-.16.48-.31.26-.29.46-.66.44-1.06s-.15-.77-.44-1.06h0Z"/>
  </g>
</svg>