<?xml version="1.0" encoding="UTF-8"?>
<svg id="Lag_2" data-name="Lag 2" xmlns="http://www.w3.org/2000/svg" viewBox="0 0 185.48 186.18">
  <defs>
    <style>
      .cls-1 {
        fill: #bfd3d7;
      }

      .cls-2 {
        fill: #fff;
      }
    </style>
  </defs>
  <g id="Lag_1-2" data-name="Lag 1">
    <g>
      <ellipse class="cls-1" cx="92.74" cy="93.09" rx="92.74" ry="93.09"/>
      <g id="tjener">
        <g>
          <path d="M154.49,70.29c.33.3.52.81.52,1.25,0,.49-.21.88-.52,1.24-1.4,1.68-2.81,3.34-4.22,5.01.27-1.02-.28-2.3-1.64-2.31-.34,0-.67,0-1.01-.01.66-.78,1.32-1.55,1.97-2.33,1.15.04,2.28.06,3.43.1,1.99.06,2.24-2.63.76-3.36.27.09.52.23.71.41Z"/>
          <path d="M153.78,69.88c1.49.73,1.23,3.42-.76,3.36-1.15-.04-2.28-.06-3.43-.1.8-.95,1.61-1.9,2.41-2.85.45-.52,1.16-.61,1.78-.41h0Z"/>
          <path d="M153.77,69.88c-.62-.2-1.33-.11-1.78.41-.8.95-1.61,1.9-2.41,2.85-6.61-.18-13.23-.33-19.84-.43-13.69-.23-27.39-.3-41.08-.22-12.91.08-25.83.3-38.73.65-.23-.27-.47-.54-.7-.81-.23-.28-.46-.55-.69-.83l-.34-.42c-.04-.06-.09-.12-.14-.18-.02-.02-.06-.07-.09-.12t-.01-.01s0,0-.01-.01c0,0,0,0,0-.01,0,0-.01,0-.01-.01,0,0,0,0,0,0s0-.01,0-.01c-.25-.3-.52-.52-.92-.64-.12-.04-.26-.06-.4-.06.26-.2.59-.32,1-.33,3.11-.08,6.22-.17,9.34-.24.2.39.54.69,1.03.83.74.21,1.73-.17,2.07-.9,3.61-.08,7.22-.15,10.84-.21,13.69-.22,27.39-.28,41.08-.19,9.41.07,18.82.21,28.23.42,0,.05.01.11.02.16.11.95.74,1.77,1.77,1.77.88,0,1.87-.81,1.77-1.77,0-.02,0-.05,0-.07,3.1.07,6.2.15,9.29.24.28,0,.54.07.75.18Z"/>
          <path d="M148.63,75.48c1.37.01,1.91,1.29,1.64,2.31-.05.06-.11.13-.16.2-.64.76-1.85.6-2.5,0-.33-.3-.52-.81-.52-1.25,0-.5.21-.88.52-1.25,0,0,.01-.01.01-.02.34,0,.67,0,1.01.01Z"/>
          <path d="M150.11,77.99c.06-.06.11-.13.16-.2-.18.68-.73,1.24-1.64,1.22-6.99-.08-13.97-.13-20.96-.16.3-.89-.4-1.9-1.24-2.14-.16-.04-.32-.06-.47-.06v-1.33c7.22.01,14.44.06,21.66.14,0,0,0,.01-.01.02-.3.37-.52.76-.52,1.25,0,.44.19.95.52,1.25.66.6,1.87.76,2.5,0Z"/>
          <path class="cls-2" d="M149.59,73.14c-.65.78-1.31,1.55-1.97,2.33-7.22-.08-14.44-.13-21.66-.14-4.95-.01-9.9,0-14.85.02-3.87.02-7.74.05-11.61.1-6.1.06-12.19.14-18.29.26-2.54.04-5.09.09-7.63.15-.74.01-1.46.04-2.2.05-6.1.14-12.2.3-18.3.5-.84-.79-1.66-1.61-2.44-2.46-.25-.26-.49-.53-.72-.8,12.9-.35,25.82-.57,38.73-.65,13.69-.08,27.4,0,41.08.22,6.61.11,13.23.25,19.84.43Z"/>
          <path d="M143.73,69.53c.11.95-.89,1.77-1.77,1.77-1.03,0-1.66-.82-1.77-1.77,0-.05-.01-.11-.02-.16,1.18.02,2.36.05,3.55.08,0,.02,0,.05,0,.07Z"/>
          <path d="M143.73,69.46c-1.19-.04-2.37-.06-3.55-.08-.87-7.56-3.96-14.88-8.59-20.9-2.06-2.68-4.46-5.12-7.1-7.24-2.8-2.26-6.01-4.29-9.46-5.4-2.92-.94-6.01-1.2-9.09-1.27v-.37c.3,0,.6-.08.87-.24,1.12-.68,2.04-1.62,2.7-2.71,3.37.32,6.63,1.03,9.75,2.49,6.82,3.2,12.62,8.75,16.81,14.94,4.21,6.19,6.82,13.35,7.66,20.78Z"/>
          <path class="cls-2" d="M131.58,48.47c4.63,6.02,7.72,13.34,8.59,20.9-9.41-.21-18.82-.35-28.23-.42-13.69-.09-27.39-.03-41.08.19-3.61.06-7.22.13-10.84.21.06-.11.09-.22.11-.34.68-4,2.23-7.72,4.02-11.33,1.73-3.47,3.44-7.17,5.82-10.26,2.36-3.04,5.65-5.02,8.87-7.02,3.36-2.09,6.81-4.16,10.7-5.07,3.19-.75,6.58-.79,9.9-.79,1,0,1.99.01,2.98,0,1.16,0,2.33,0,3.49.01,3.08.06,6.17.33,9.09,1.27,3.44,1.11,6.66,3.13,9.46,5.4,2.64,2.12,5.04,4.56,7.1,7.24ZM85.91,42.3c.62-.82-.56-1.95-1.32-1.16-.07.08-.15.16-.22.23-4.76,2.38-8.9,5.88-12.24,10.02-1.67,2.07-3.16,4.28-4.45,6.61-1.4,2.53-2.79,5.23-3,8.16-.04.48.26.76.62.82.02,0,.04.01.05.01.09.04.19.06.3.06h4.52c.46,0,.91-.41.88-.88,0-.06-.01-.12-.02-.18h0c2.14-9.08,8.12-16.54,14.41-23.18l.04-.02c.24-.12.37-.29.42-.48,0,0,0,0,0,0Z"/>
          <path d="M126.43,76.72c.85.24,1.55,1.25,1.24,2.14h-.18c-1.22,0-2.45,0-3.66,0,.17-.29.3-.59.42-.9.28-.75.92-1.3,1.7-1.3.15,0,.3.02.47.06Z"/>
          <path d="M127.68,78.86s0,.02,0,.04c-1.19,3.2-3.75,5.53-6.77,7.04-2.87,1.43-6,2.24-8.96,3.49-2.65,1.12-5.21,2.48-7.64,4.02-4.92,3.11-9.27,7.02-12.94,11.52-.06.07-.12.13-.18.18-.04-.04-.08-.07-.12-.11-.81-.71-1.66-1.41-2.5-2.09.07-.17.18-.33.3-.48,2.03-2.5,4.27-4.82,6.71-6.93,2.34-2.02,4.85-3.86,7.48-5.47-.16.82,1.11,1.43,1.66.59.63-.97,1.34-1.87,2.12-2.71,1.1-.57,2.21-1.09,3.35-1.58,2.84-1.22,5.87-2.02,8.66-3.36,1.95-.93,3.95-2.24,5.02-4.17,1.22,0,2.44,0,3.66,0h.18Z"/>
          <path d="M125.96,75.33v1.33c-.79,0-1.43.55-1.7,1.3-.12.31-.25.61-.42.9-2.03,0-4.06,0-6.09,0,.16-.39.27-.81.32-1.27.11-1.13-1.66-1.12-1.77,0-.05.49-.25.91-.53,1.28-2.16,0-4.34.01-6.5.03.44-.41.83-.87,1.14-1.39.59-.98-.94-1.87-1.53-.89-.63,1.07-1.68,1.69-2.74,2.27-.02,0-.04.02-.06.03-1.77.01-3.53.03-5.3.05.02-.01.05-.04.07-.06,1.33-1.19.08-2.97-1.33-2.97v-.49c3.86-.05,7.73-.08,11.6-.1,4.95-.03,9.9-.04,14.85-.02Z"/>
          <path class="cls-2" d="M117.74,78.86c2.03,0,4.06,0,6.09,0-1.07,1.92-3.07,3.24-5.02,4.17-2.79,1.34-5.81,2.14-8.66,3.36-1.13.49-2.25,1.01-3.35,1.58,1.37-1.49,2.94-2.78,4.6-3.93,1.33-.93,2.77-1.68,4.1-2.61.98-.68,1.8-1.51,2.23-2.55Z"/>
          <path d="M116.29,77.59c.11-1.12,1.87-1.13,1.77,0-.05.46-.16.88-.32,1.27-.66,0-1.32,0-1.98,0,.28-.37.48-.79.53-1.28Z"/>
          <path d="M115.76,78.87c.66,0,1.32,0,1.98,0-.43,1.05-1.25,1.87-2.23,2.55-1.33.93-2.77,1.68-4.1,2.61-1.66,1.15-3.23,2.45-4.6,3.93-1.28.66-2.54,1.37-3.77,2.12.02-.1.07-.21.13-.31,1.66-2.57,3.85-4.68,6.29-6.51,1.22-.91,2.5-1.75,3.81-2.53.81-.49,1.87-1.05,2.49-1.86Z"/>
          <path class="cls-2" d="M115.76,78.87c-.62.81-1.68,1.37-2.49,1.86-1.31.79-2.59,1.62-3.81,2.53-2.44,1.82-4.63,3.94-6.29,6.51-.06.11-.11.21-.13.31-2.63,1.62-5.14,3.45-7.48,5.47-2.44,2.11-4.68,4.43-6.71,6.93-.12.15-.23.31-.3.48-.54-.43-1.08-.87-1.61-1.31-2.51-2.08-5.02-4.17-7.53-6.25.61-.16,1.16-.59,1.26-1.22.88-5.4-.93-10.99-4.68-14.84l3.84-.08c2.02,3.2,5.86,4.92,9.61,4.84,4.3-.08,8.18-2.35,11.32-5.14,1.77-.02,3.53-.04,5.3-.05-1.12.62-2.29,1.18-3.46,1.71-2.52,1.12-5.12,2.06-7.72,2.96-4.56,1.56-9.45,3.4-11.95,7.84-.56.99.97,1.88,1.53.89,2.61-4.62,8.09-6.02,12.75-7.67,2.53-.9,5.05-1.88,7.48-3.04,1.55-.74,3.28-1.51,4.57-2.7,2.16-.01,4.34-.03,6.5-.03Z"/>
          <path d="M97.97,28v.03c.06.4.18.8.31,1.18,0,.01.02.06.04.1,0,0,0,.02.01.03s0,.01,0,.02c0,.01.01.02.01.02.03.05.05.11.08.16.1.19.21.37.33.54.02.03.06.08.08.11.06.08.14.16.21.23.11.12.22.23.35.33,0,0,.28.19.33.23-1.49.01-2.98.06-4.46.14-.61-1.2-.91-2.57-.86-3.88.12-2.9,2.38-5.33,4.89-6.55,2.55-1.24,5.68-1.35,8.06.35,2.06,1.46,3.43,3.9,3.3,6.47-.07,1.34-.48,2.62-1.16,3.74-1.07-.1-2.14-.16-3.23-.19-.47-.01-.95-.03-1.43-.04.06-.04.11-.08.17-.11.45-.28.6-.39,1.01-.85.01-.01.1-.11.15-.16h0s.15-.21.16-.23c.13-.21.26-.42.37-.64.13-.27.23-.6.35-1.08,0-.04.02-.08.03-.1,0,.04.03-.04.03-.08.01-.03.01-.04,0,0,0,.01-.01.04-.03.08,0-.01,0-.04,0-.06.01-.1.02-.19.03-.28,0-.23,0-.45-.01-.68,0,.04,0,.04,0-.07v.06c0-.06-.01-.16-.03-.21-.01-.09-.04-.18-.06-.26-.05-.2-.11-.39-.18-.58,0,0,0,0,0-.01,0,0,0,0,0,0,0-.01,0-.03-.01-.04,0,0,0-.01,0-.02-.04-.08-.08-.16-.13-.24-.08-.16-.18-.3-.28-.45-.02-.04-.04-.06-.05-.08.04.04-.04-.08-.05-.09,0,.01.01.04.04.06,0,0-.02-.01-.03-.03-.06-.07-.11-.14-.18-.21-.13-.16-.28-.3-.44-.44-.04-.04-.08-.08-.12-.11,0,0-.01,0-.02-.01h0s-.11-.08-.12-.09c-.17-.11-.35-.23-.53-.32,0,0-.09-.05-.16-.08t-.03-.02s-.01,0-.02,0h-.01s-.08-.04-.08-.04c-.21-.07-.41-.13-.62-.18-.41-.09-.88-.1-1.34-.05-.87.09-1.58.4-2.34.89-.62.39-1.38,1.03-1.85,1.7-.26.36-.42.68-.49,1.15,0,.04,0,.39,0,.53,0,.11.01.22.01.33,0,.01,0,.06,0,.1Z"/>
          <path d="M108.87,76.61c.59-.98,2.12-.08,1.53.89-.31.52-.7.98-1.14,1.39-1.07,0-2.13,0-3.19.01.02,0,.04-.02.06-.03,1.06-.58,2.12-1.2,2.74-2.27Z"/>
          <path d="M109.26,78.9c-1.29,1.2-3.02,1.97-4.57,2.7-2.43,1.16-4.95,2.14-7.48,3.04-4.65,1.65-10.14,3.05-12.75,7.67-.56.99-2.09.1-1.53-.89,2.5-4.44,7.39-6.27,11.95-7.84,2.6-.9,5.21-1.83,7.72-2.96,1.17-.53,2.33-1.09,3.46-1.71,1.06,0,2.12-.01,3.19-.01Z"/>
          <path d="M109.5,31.25c-.66,1.09-1.58,2.03-2.7,2.71-.27.16-.57.24-.86.24-.62,0-1.23-.33-1.56-.87-.45-.77-.22-1.77.47-2.31.48,0,.95.02,1.43.04,1.08.03,2.16.09,3.23.19Z"/>
          <path class="cls-2" d="M106.17,29.91h0s-.13.14-.15.16c-.41.46-.57.57-1.01.85-.06.04-.11.08-.17.11-1.7-.05-3.4-.07-5.11-.05-.06-.04-.33-.23-.33-.23-.13-.1-.24-.21-.35-.33-.07-.07-.15-.15-.21-.23-.01-.03-.06-.08-.08-.11-.11-.18-.23-.35-.33-.54-.03-.05-.05-.11-.08-.16,0,0,0,0,0-.02,0,0-.01-.01-.01-.02,0,0,0-.02-.01-.03-.02-.04-.04-.08-.04-.1-.13-.38-.25-.78-.31-1.18v-.03s0-.08,0-.1c0-.11-.01-.22-.01-.33,0-.14,0-.49,0-.53.07-.47.23-.79.49-1.15.47-.66,1.24-1.31,1.85-1.7.76-.49,1.47-.8,2.34-.89.47-.05.93-.04,1.34.05.21.05.41.11.62.18,0,0,.04.01.08.03h0s0,0,0,0c.02.01.04.02.05.03.06.04.15.08.16.08.18.09.36.21.53.32.01,0,.08.06.12.08h0s.01.02.02.02c.04.04.08.08.12.11.16.13.3.28.44.44.06.06.12.13.18.21,0,.01.02.02.03.03,0,0,0,.01.01.03.01.02.03.05.05.08.09.15.19.3.28.45.04.08.08.16.13.24,0,0,0,.01,0,.02,0,.01.01.02.01.04,0,0,0,0,0,0,0,0,0,0,0,.01.06.19.13.38.18.58.02.08.04.17.06.26.01.05.02.16.03.21h0c.01.24.02.46.01.69,0,.09-.01.18-.03.28,0,.03,0,.05,0,.06h0s-.02.06-.03.11c-.13.47-.22.81-.35,1.08-.11.22-.24.44-.37.64-.01.02-.13.18-.16.23Z"/>
          <path d="M107.12,27.78s.01-.03,0,0h0Z"/>
          <path d="M107.11,26.76c0,.11,0,.11,0,.07h0v-.07Z"/>
          <path d="M107.09,27.85s.02-.06.03-.08c0,.05-.02.13-.03.08h0Z"/>
          <path d="M106.31,24.82s.09.13.05.09c0-.01-.01-.02-.01-.03-.02-.03-.04-.05-.04-.06Z"/>
          <path d="M105.94,34.2v.37c-1.17-.02-2.34-.02-3.5-.01-.98,0-1.97,0-2.98,0v-.04c.59,0,1.14-.25,1.48-.83.43-.74.25-2.04-.64-2.42-.19-.08-.38-.17-.57-.28,1.71-.02,3.42,0,5.11.05-.69.54-.92,1.53-.47,2.31.33.54.94.87,1.56.87Z"/>
          <path d="M105.58,24.1s-.01,0-.02-.01c0,0,.02.01.02.01Z"/>
          <path d="M106.82,87.96c-.77.84-1.49,1.74-2.12,2.71-.54.84-1.82.23-1.66-.59,1.23-.76,2.49-1.46,3.77-2.12Z"/>
          <path d="M104.72,23.57q.06.03.03.02s-.03-.01-.05-.03c0,0,0,0,.02,0Z"/>
          <path d="M100.3,31.25c.88.37,1.07,1.68.64,2.42-.34.59-.89.83-1.48.83-.31,0-.64-.07-.94-.2-1.44-.61-2.54-1.79-3.24-3.19,1.48-.08,2.97-.13,4.46-.14.18.11.37.2.57.28Z"/>
          <path d="M99.52,75.93c1.41,0,2.66,1.78,1.33,2.97-.02.02-.05.04-.07.06-2.03.01-4.05.04-6.08.07,1.32-.73,2.55-1.66,3.65-2.63.37-.33.78-.47,1.17-.47Z"/>
          <path d="M99.51,75.45v.49c-.39,0-.8.14-1.17.47-1.1.97-2.33,1.9-3.65,2.63-1.57.01-3.14.04-4.71.06-1.8.03-3.59.06-5.39.09-.78-.53-1.45-1.23-1.95-2.09-.35-.61-.88-.86-1.41-.86v-.52c6.09-.12,12.18-.21,18.28-.26Z"/>
          <path d="M99.46,34.5v.04c-3.32,0-6.71.04-9.9.79-3.89.91-7.34,2.99-10.7,5.07-3.22,2-6.51,3.98-8.87,7.02-2.38,3.08-4.09,6.78-5.82,10.26-1.8,3.61-3.35,7.34-4.02,11.33-.02.12-.06.23-.11.34-1.03.02-2.07.04-3.1.07-.22-.4-.28-.88-.2-1.35.82-4.87,2.94-9.4,5.18-13.77,2.12-4.11,4.2-8.43,7.63-11.62,3.08-2.86,6.9-5.06,10.53-7.14,3.88-2.23,7.89-3.78,12.36-4.22.94-.09,1.89-.16,2.84-.21.7,1.4,1.8,2.58,3.24,3.19.3.13.63.2.94.2Z"/>
          <path d="M98.34,29.34s0,.01.01.02h0s0-.01,0-.02Z"/>
          <path d="M94.69,79.03c2.03-.03,4.05-.06,6.08-.07-3.15,2.79-7.02,5.05-11.32,5.14-3.76.08-7.59-1.63-9.61-4.84,1.58-.03,3.17-.06,4.75-.08,1.46,1.01,3.31,1.46,5.11,1.37,1.76-.08,3.44-.66,4.99-1.52Z"/>
          <path d="M91.18,105.16c1.2,1.11,1.97,2.63,1.34,4.27-.55,1.45-1.96,2.45-3,3.54-1.07,1.12-2.09,2.3-3.02,3.54-1.86,2.48-3.43,5.17-4.73,8-.32.69-1.17.96-1.9.81-.22-1.22-.44-2.45-.65-3.68,1.1-2.25,2.39-4.41,3.86-6.44,1.72-2.36,3.66-4.44,5.71-6.51.11-.11.33-.3.43-.47.01,0,.03-.03.04-.13,0,.04-.02.08-.04.13-.02,0-.05-.06-.09-.11-.41-.54-1.06-.96-1.58-1.39-1.26-1.04-2.51-2.09-3.77-3.13-2.53-2.1-5.08-4.21-7.61-6.31.93-.5,1.85-1,2.77-1.51.18-.11.34-.22.46-.35,0,0,.01,0,.02,0,2.51,2.08,5.02,4.17,7.53,6.25.53.44,1.07.88,1.61,1.31-.32.66-.28,1.44.3,2.02s1.66.72,2.32.18Z"/>
          <path d="M91.06,105.06s.08.07.12.11c-.66.54-1.75.38-2.32-.18s-.62-1.35-.3-2.02c.84.69,1.68,1.38,2.5,2.09Z"/>
          <path d="M89.22,108.22s.04-.08.04-.13c-.01.1-.03.13-.04.13Z"/>
          <path class="cls-2" d="M89.13,108.11s.07.11.09.11c-.1.18-.33.36-.43.47-2.04,2.07-3.99,4.15-5.71,6.51-1.47,2.03-2.76,4.19-3.86,6.44-.64-3.64-1.26-7.29-1.87-10.94-.71-4.31-1.41-8.62-2.1-12.93.3-.16.61-.33.91-.5,2.53,2.1,5.08,4.21,7.61,6.31,1.26,1.04,2.51,2.09,3.77,3.13.52.43,1.17.85,1.58,1.39ZM82.03,113.06c2.28,0,2.28-3.54,0-3.54s-2.28,3.54,0,3.54Z"/>
          <path d="M86.05,158.21c.18.94-.26,1.9-1.24,2.17-.62.17-1.36-.05-1.8-.52.46-.15.91-.3,1.37-.45,2.15-.71,1.23-4.12-.94-3.41-.45.15-.89.3-1.34.45-.71-3.56-1.39-7.12-2.07-10.69-2.91-15.36-5.6-30.76-8.05-46.19,1.09-.59,2.19-1.19,3.28-1.78.69,4.31,1.39,8.62,2.1,12.93.61,3.65,1.23,7.29,1.87,10.94-.17.35-.34.71-.5,1.08-.4.87-.25,1.9.63,2.42.16.09.33.16.52.18,1.94,10.99,4,21.95,6.18,32.89Z"/>
          <path d="M84.59,41.14c.76-.79,1.94.34,1.32,1.16.16-.63-.54-1.42-1.32-1.04-.07.04-.15.07-.22.11.07-.08.15-.16.22-.23Z"/>
          <path d="M84.59,41.26c.78-.38,1.48.41,1.32,1.04,0,0,0,0,0,0-.02.03-.04.06-.07.08-.13.14-.26.28-.4.42-1.9.94-3.69,2.05-5.36,3.31,1.39-1.63,2.83-3.21,4.29-4.75.07-.04.15-.08.22-.11Z"/>
          <path d="M85.84,42.39s.05-.06.07-.08c-.05.19-.18.36-.42.48l-.04.02c.13-.14.26-.28.4-.42Z"/>
          <path d="M83.44,156c2.17-.71,3.09,2.7.94,3.41-.46.15-.91.3-1.37.45-.18-.2-.32-.43-.37-.71-.18-.91-.36-1.8-.54-2.71.45-.15.9-.3,1.34-.45Z"/>
          <path d="M82.65,77.09c.5.86,1.17,1.56,1.95,2.09-1.58.02-3.17.05-4.75.08-.09-.13-.17-.25-.24-.38-.79-1.37.44-2.65,1.63-2.65.54,0,1.07.25,1.41.86Z"/>
          <path d="M82.64,159.15c.06.28.19.51.37.71-10.46,3.45-21.35,6.64-32.43,4.97.81-.18,1.31-.9,1.38-1.73.05-.54.09-1.08.13-1.61,10.2,1.33,20.4-1.87,30.01-5.05.18.91.36,1.8.54,2.71Z"/>
          <path d="M82.03,109.53c2.28,0,2.28,3.54,0,3.54s-2.28-3.54,0-3.54Z"/>
          <path class="cls-2" d="M80.03,145.76c.68,3.57,1.37,7.13,2.07,10.69-9.61,3.18-19.81,6.38-30.01,5.05.37-5.19.23-10.36-.11-15.53-.54-8.23-1.58-16.45-1.88-24.7-.13-3.62.27-6.93,2.43-9.95.18-.25.26-.56.25-.86.02-.01.05-.04.07-.05,2.41-1.68,4.97-3.1,7.55-4.5,2.9-1.59,5.81-3.18,8.71-4.76.96-.52,1.92-1.05,2.88-1.58,2.45,15.43,5.14,30.83,8.05,46.19Z"/>
          <path d="M81.22,75.71v.52c-1.19,0-2.41,1.27-1.63,2.65.07.13.15.25.24.38l-3.84.08c-1.08-1.12-2.33-2.08-3.72-2.86-.3-.16-.59-.23-.87-.23v-.35c.73-.01,1.46-.04,2.19-.05,2.54-.06,5.09-.11,7.63-.15Z"/>
          <path d="M84.37,41.37c-1.46,1.53-2.91,3.11-4.29,4.75-2.34,1.77-4.46,3.82-6.35,6.09-1.6,1.93-3.01,4.02-4.25,6.2-1.2,2.11-2.51,4.44-2.91,6.88h-.92c-.47,0-.91.4-.88.88.01.35.23.67.54.81-.35-.06-.65-.34-.62-.82.21-2.93,1.6-5.64,3-8.16,1.29-2.33,2.78-4.54,4.45-6.61,3.34-4.14,7.48-7.64,12.24-10.02Z"/>
          <path d="M76,79.34c3.76,3.85,5.57,9.44,4.68,14.84-.1.63-.65,1.07-1.26,1.22,0,0,0,0,0,0,1.13-1.22-.33-3.49-2.06-2.78.55-5.13-2.28-10.53-6.86-13.08-.04-.02-.08-.04-.11-.08,1.87-.04,3.74-.08,5.62-.12Z"/>
          <path d="M80.08,46.12c1.68-1.26,3.47-2.37,5.36-3.31-6.29,6.64-12.27,14.1-14.41,23.17-.1-.4-.43-.7-.86-.7h-.79c1.76-7.25,5.9-13.52,10.7-19.16Z"/>
          <path class="cls-2" d="M73.73,52.21c1.88-2.27,4-4.32,6.35-6.09-4.8,5.64-8.94,11.91-10.7,19.16h-2.81c.4-2.44,1.71-4.77,2.91-6.88,1.24-2.18,2.65-4.27,4.25-6.2Z"/>
          <path d="M79.87,125.33c-.19-.03-.37-.09-.52-.18-.88-.52-1.03-1.55-.63-2.42.16-.36.33-.72.5-1.08.21,1.23.43,2.45.65,3.68Z"/>
          <path d="M77.35,92.62c1.73-.71,3.19,1.56,2.06,2.78-.31-.25-.62-.52-.93-.77-.35-.29-.76-.47-1.18-.5-.07-.28-.08-.59-.03-.89.04-.21.06-.42.08-.62Z"/>
          <path d="M79.42,95.41s-.01,0-.02,0h.01s0,0,0,0Z"/>
          <path d="M79.41,95.4h-.01c-.3.08-.62.09-.9.01-.67-.18-1.07-.69-1.2-1.28.42.03.83.21,1.18.5.31.25.62.52.93.77Z"/>
          <path d="M79.4,95.41c-.12.13-.28.25-.46.35-.93.51-1.85,1.01-2.77,1.51-.06-.06-.12-.11-.18-.16-.74-.61-.63-1.87,0-2.5.37-.38.85-.53,1.32-.5.13.59.53,1.1,1.2,1.28.28.08.59.07.9,0Z"/>
          <path d="M77.15,92.72c.07-.04.14-.07.21-.1-.02.21-.05.42-.08.62-.05.3-.04.61.03.89-.47-.04-.94.11-1.32.5-.63.62-.74,1.89,0,2.5.06.05.12.1.18.16-.3.17-.61.34-.91.5-.03-.18-.06-.36-.08-.54-.15-.95-1.32-1.47-2.17-1.24-1,.28-1.39,1.23-1.24,2.18.07.46.15.92.22,1.38-.96.53-1.92,1.05-2.88,1.58-2.9,1.58-5.81,3.17-8.71,4.76-2.57,1.4-5.14,2.82-7.55,4.5-.02.01-.05.04-.07.05-.01-.62-.37-1.25-.89-1.56-.66-.38-1.37-.28-1.92.13l-.42-.55c2.9-2.22,6.13-4.03,9.33-5.78l18.27-9.97Z"/>
          <path d="M75.17,97.25c.03.18.06.36.08.54-1.09.59-2.19,1.2-3.28,1.78-.07-.46-.15-.92-.22-1.38-.15-.95.23-1.9,1.24-2.18.85-.23,2.02.29,2.17,1.24Z"/>
          <path d="M72.28,76.49c1.39.78,2.64,1.74,3.72,2.86-1.87.04-3.74.08-5.62.12-1.53-.98-.51-3.21,1.03-3.21.28,0,.57.07.87.23Z"/>
          <path d="M71.4,75.91v.35c-1.53,0-2.55,2.24-1.02,3.21-5.76.13-11.53.3-17.29.47.25-.07.48-.21.67-.42.62-.68.73-1.83,0-2.5-.22-.2-.44-.4-.66-.62,6.1-.19,12.19-.35,18.3-.5Z"/>
          <path d="M71.05,66.17c.02.47-.42.88-.88.88h-4.52c-.11,0-.21-.02-.3-.06.49.08,1.06-.2,1.1-.83.02-.3.06-.59.11-.88h2.81c-.05.21-.1.42-.15.63-.25,1.11,1.46,1.58,1.7.47.03-.13.06-.26.1-.4,0,.06.02.12.02.18Z"/>
          <path d="M71.03,65.98h0c-.04.14-.07.27-.1.4-.25,1.11-1.95.64-1.7-.47.05-.21.1-.42.15-.63h.79c.43,0,.76.3.86.7Z"/>
          <path d="M65.65,65.28h.92c-.06.29-.09.58-.11.88-.04.64-.62.91-1.1.83-.01,0-.03,0-.05-.01-.31-.14-.52-.46-.54-.81-.02-.48.42-.88.88-.88Z"/>
          <path d="M56.93,69.43c1.03-.03,2.07-.05,3.1-.07-.34.73-1.32,1.1-2.07.9-.49-.13-.83-.44-1.03-.83Z"/>
          <path d="M53.76,77.02c.73.67.62,1.82,0,2.5-.19.21-.42.35-.67.42l-.62.02c-.34,0-.63-.06-.87-.19-.02-.01-.04-.02-.06-.04-.08-.05-.17-.11-.24-.18-.01-.01-.03-.02-.04-.04-.94-.94-.53-3.04,1.22-3.1.21,0,.42-.01.63-.02.22.21.44.42.66.62Z"/>
          <path d="M53.1,76.4c-.21,0-.42.01-.63.02-1.75.06-2.16,2.16-1.22,3.1-2.3-2.1-4.36-4.41-6.25-6.87-.28-.37-.28-.93-.18-1.36.11-.45.44-.81.81-1.06.26-.17.62-.25.96-.23-1.2.88-.88,3.25,1,3.2.79-.02,1.56-.04,2.35-.06.23.27.47.54.72.8.79.86,1.6,1.68,2.44,2.46Z"/>
          <path d="M52.47,79.96l.62-.02c-.49.16-1.04.08-1.49-.17.24.13.53.2.87.19Z"/>
          <path d="M52.77,110.45c0,.3-.07.61-.25.86-2.16,3.02-2.55,6.32-2.43,9.95.3,8.25,1.34,16.47,1.88,24.7h-.1c0-.28-.07-.57-.23-.84-.45-.76-1.65-1.2-2.42-.64-.27.2-.54.34-.83.45-.36-5.13-.9-10.25-1.32-15.38-.28-3.52-.63-7.09-.54-10.62.02-.98.11-1.95.28-2.91,1.65-2.19,3.8-4.06,5.96-5.57Z"/>
          <path d="M51.97,145.96c.34,5.17.48,10.34.11,15.53-.49-.06-.97-.13-1.46-.22-.93-.16-1.87.24-2.16,1.2.33-3.81.37-7.64.24-11.46-.03-.82-.06-1.64-.11-2.46.85-.15,1.67-.47,2.4-1.01.53-.39.87-.96.87-1.57h.1Z"/>
          <path d="M52.09,161.5c-.04.54-.08,1.08-.13,1.61-.07.83-.57,1.55-1.38,1.73-.3-.04-.59-.09-.89-.14-.71-.13-1.18-.81-1.27-1.51,0-.03,0-.05,0-.08.02-.21.04-.42.05-.64.28-.95,1.23-1.36,2.16-1.2.49.08.97.16,1.46.22Z"/>
          <path d="M51.88,108.9c.52.3.88.94.89,1.56-2.16,1.51-4.31,3.38-5.96,5.57.4-2.32,1.24-4.53,2.65-6.49.14-.2.31-.37.5-.51.54-.4,1.25-.51,1.92-.13Z"/>
          <path d="M51.64,145.12c.16.28.23.57.23.85,0,.61-.34,1.18-.87,1.57-.73.54-1.55.86-2.4,1.01-.06-1.21-.13-2.41-.22-3.62.29-.11.57-.25.83-.45.77-.57,1.97-.12,2.42.64Z"/>
          <path d="M51.54,79.73c-.08-.05-.17-.11-.24-.18.07.06.16.13.24.18Z"/>
          <path d="M49.69,164.69c.3.05.59.1.89.14-.12.03-.25.04-.39.04-.87,0-1.8-.77-1.78-1.69.09.69.57,1.38,1.27,1.51Z"/>
          <path d="M49.55,108.47l.42.55c-.19.13-.36.31-.5.51-1.41,1.96-2.25,4.17-2.65,6.49-1.49,1.97-2.57,4.21-2.9,6.67h0c-.71-1.22-2.86-1.42-3.23.33-.04.17-.07.35-.11.52-.16-.25-.23-.54-.2-.84.45-3.32,1.77-6.33,3.81-9,1.55-2.02,3.37-3.72,5.35-5.23Z"/>
          <path d="M49.24,72.33c.23.28.47.54.7.81-.79.02-1.56.04-2.35.06-1.87.05-2.2-2.33-1-3.2.14,0,.28.02.4.06.4.11.67.34.92.64,0,0,0,0,0,.01s0,0,0,0c0,0,0,0,0,.01,0,0,0,0,.01.01s0,.01.01.01t.01.01s.07.1.09.12c.05.06.1.12.14.18l.34.42c.23.28.45.55.69.83Z"/>
          <path d="M48.46,162.51s0-.03.01-.04c-.01.21-.03.42-.05.64,0,.03,0,.05,0,.08-.03-.23-.01-.46.04-.67Z"/>
          <path d="M48.39,144.93c.08,1.21.16,2.41.22,3.62-1.61.28-3.33-.06-4.8-.82-2.42-1.24-3.9-3.76-4.53-6.33-.7-2.88-.59-5.93-.27-8.85.33-3.03.93-6.03,1.56-9.01.32.54.98.93,1.57.93,1.05,0,1.63-.81,1.77-1.75.2.34.28.76.18,1.25-1.04,4.92-2.33,10.21-1.63,15.28.25,1.8.87,3.86,2.4,4.99,1.07.79,2.36,1.11,3.53.7Z"/>
          <path d="M47.94,70.73s0,.01,0,.01c0,0,0-.01-.01-.01h0Z"/>
          <path d="M47.93,70.71s0,.01.01.01h0s0-.01,0-.01Z"/>
          <path class="cls-2" d="M48.39,144.93c-1.17.41-2.46.08-3.53-.7-1.53-1.12-2.15-3.18-2.4-4.99-.7-5.06.59-10.36,1.63-15.28.1-.49.02-.91-.18-1.25h0c.33-2.48,1.41-4.71,2.9-6.68-.17.95-.26,1.92-.28,2.91-.09,3.53.25,7.1.54,10.62.42,5.13.95,10.25,1.32,15.38Z"/>
          <path d="M43.92,122.71c-.13.95-.71,1.75-1.77,1.75-.59,0-1.25-.38-1.57-.93.04-.17.07-.35.11-.52.37-1.75,2.53-1.54,3.23-.31Z"/>
        </g>
      </g>
    </g>
  </g>
</svg>